<svg id="co-white" xmlns="http://www.w3.org/2000/svg" viewBox="0 0 150 68.479">
  <defs>
    <style>
      .cls-1 {
        fill: #fff;
      }
    </style>
  </defs>
  <path id="Tracé_35" data-name="Tracé 35" class="cls-1" d="M17.64,64.1A32.542,32.542,0,0,1,4.711,51.928,33.576,33.576,0,0,1,0,34.239,33.576,33.576,0,0,1,4.711,16.551,32.753,32.753,0,0,1,17.64,4.374,38.893,38.893,0,0,1,36.21,0,39.942,39.942,0,0,1,52.489,3.2a31.308,31.308,0,0,1,12.033,9.213L52.665,23.136q-6.393-7.715-15.526-7.707a19.135,19.135,0,0,0-9.549,2.355A16.373,16.373,0,0,0,21.1,24.418a20.4,20.4,0,0,0-2.307,9.822A20.351,20.351,0,0,0,21.1,44.061a16.373,16.373,0,0,0,6.489,6.633A19.135,19.135,0,0,0,37.14,53.05c6.088,0,11.248-2.564,15.526-7.707L64.521,56.062a31.428,31.428,0,0,1-12.033,9.213,39.888,39.888,0,0,1-16.279,3.2A38.893,38.893,0,0,1,17.64,64.1Z" transform="translate(0 0)"/>
  <path id="Tracé_36" data-name="Tracé 36" class="cls-1" d="M497.417,64.057A32.925,32.925,0,0,1,479.6,34.239,32.925,32.925,0,0,1,497.417,4.422a42.012,42.012,0,0,1,37.524,0c.529.288,1.057.577,1.57.881L547.2.849l-3.877,9.758a32.879,32.879,0,0,1,9.437,23.633,32.925,32.925,0,0,1-17.817,29.817,42.012,42.012,0,0,1-37.524,0Zm27.8-13.363a16.986,16.986,0,0,0,6.393-6.633,20.059,20.059,0,0,0,2.355-9.822,20.015,20.015,0,0,0-2.355-9.822,16.986,16.986,0,0,0-6.393-6.633,18.513,18.513,0,0,0-18.073,0,16.986,16.986,0,0,0-6.393,6.633,20.058,20.058,0,0,0-2.355,9.822,20.015,20.015,0,0,0,2.355,9.822,16.986,16.986,0,0,0,6.393,6.633,18.513,18.513,0,0,0,18.073,0Z" transform="translate(-402.757)"/>
</svg>
