<svg xmlns="http://www.w3.org/2000/svg" viewBox="0 0 97.208 44.491">
  <defs>
    <style>
      .cls-1 {
        fill: #fff;
      }
    </style>
  </defs>
  <g id="CO" transform="translate(0 0)">
    <path id="Tracé_30" data-name="Tracé 30" class="cls-1" d="M11.417,41.637a21.379,21.379,0,0,1-8.395-7.919A21.885,21.885,0,0,1,0,22.245a21.814,21.814,0,0,1,3.05-11.5,21.193,21.193,0,0,1,8.395-7.919A25.289,25.289,0,0,1,23.477,0,26.09,26.09,0,0,1,34.026,2.071a20.443,20.443,0,0,1,7.807,5.988l-7.695,6.967a12.672,12.672,0,0,0-10.045-5.009,12.22,12.22,0,0,0-6.184,1.539,10.384,10.384,0,0,0-4.2,4.309,13.1,13.1,0,0,0-1.483,6.38,13.418,13.418,0,0,0,1.483,6.38,10.731,10.731,0,0,0,4.2,4.309,12.783,12.783,0,0,0,16.229-3.47L41.8,36.432A20.172,20.172,0,0,1,34,42.42a26,26,0,0,1-10.549,2.071A25.137,25.137,0,0,1,11.417,41.637Z" transform="translate(0)"/>
    <path id="Tracé_31" data-name="Tracé 31" class="cls-1" d="M189.456,41.609A21.417,21.417,0,0,1,177.9,22.245,21.417,21.417,0,0,1,189.456,2.882a27.144,27.144,0,0,1,24.344,0c.336.2.672.364,1.007.588L221.719.56,219.2,6.911a21.951,21.951,0,0,1,3.05,3.917,21.677,21.677,0,0,1,3.078,11.417,21.607,21.607,0,0,1-3.078,11.417,21.3,21.3,0,0,1-8.478,7.947A25.633,25.633,0,0,1,201.6,44.491,25.2,25.2,0,0,1,189.456,41.609Zm18.02-8.674a10.969,10.969,0,0,0,4.141-4.309,13.11,13.11,0,0,0,1.511-6.38,13.11,13.11,0,0,0-1.511-6.38,10.969,10.969,0,0,0-4.141-4.309,11.476,11.476,0,0,0-5.848-1.539,11.206,11.206,0,0,0-5.848,1.539,10.969,10.969,0,0,0-4.141,4.309,13.11,13.11,0,0,0-1.511,6.38,13.11,13.11,0,0,0,1.511,6.38,10.969,10.969,0,0,0,4.141,4.309,11.475,11.475,0,0,0,5.848,1.539A11.206,11.206,0,0,0,207.477,32.934Z" transform="translate(-128.121)"/>
  </g>
</svg>
