<svg id="filter" xmlns="http://www.w3.org/2000/svg" viewBox="0 0 12.887 11.02">
  <defs>
    <style>
      .cls-1 {
        fill: #00a983;
      }
    </style>
  </defs>
  <path id="Tracé_3" data-name="Tracé 3" class="cls-1" d="M12.151,32.044H10.31a1.385,1.385,0,0,0-2.341,0H.736a.736.736,0,0,0,0,1.473H7.969a1.385,1.385,0,0,0,2.341,0h1.841a.736.736,0,0,0,0-1.473Z" transform="translate(0 -27.271)"/>
  <path id="Tracé_4" data-name="Tracé 4" class="cls-1" d="M.736,2.117H2.577a1.385,1.385,0,0,0,2.341,0h7.233a.736.736,0,0,0,0-1.473H4.918a1.385,1.385,0,0,0-2.341,0H.736A.782.782,0,0,0,.21.855.724.724,0,0,0,0,1.381.735.735,0,0,0,.736,2.117Z" transform="translate(0)"/>
  <path id="Tracé_5" data-name="Tracé 5" class="cls-1" d="M12.151,63.444H4.918a1.385,1.385,0,0,0-2.341,0H.736a.736.736,0,0,0,0,1.473H2.577a1.385,1.385,0,0,0,2.341,0h7.233a.736.736,0,0,0,0-1.473Z" transform="translate(0 -54.542)"/>
</svg>
