<?xml version="1.0" encoding="utf-8"?>
<!-- Generator: Adobe Illustrator 22.1.0, SVG Export Plug-In . SVG Version: 6.00 Build 0)  -->
<svg version="1.1" id="Calque_1" xmlns="http://www.w3.org/2000/svg" xmlns:xlink="http://www.w3.org/1999/xlink" x="0px" y="0px"
	 viewBox="0 0 570 389" style="enable-background:new 0 0 570 389;" xml:space="preserve">
<style type="text/css">
	.st0{fill:#00A983;}
	.st1{filter:url(#Adobe_OpacityMaskFilter);}
	.st2{fill:#FFFFFF;}
	.st3{mask:url(#mask-2_1_);fill:#00A983;}
	.st4{filter:url(#Adobe_OpacityMaskFilter_1_);}
	.st5{mask:url(#mask-2_2_);fill:#00A983;}
	.st6{filter:url(#Adobe_OpacityMaskFilter_2_);}
	.st7{mask:url(#mask-4_1_);fill:#00A983;}
	.st8{filter:url(#Adobe_OpacityMaskFilter_3_);}
	.st9{mask:url(#mask-4_2_);fill:#00A983;}
</style>
<desc>Created with Sketch.</desc>
<g id="CONNEXING-LOGO-2013-blanc">
	<path id="Fill-1" class="st0" d="M202.3,289.9l-0.1,43.8c-2.8,0.2-5.2,0.1-7.2-0.1c-2-0.2-3.9-0.7-5.7-1.4c-1.8-0.7-3.1-1.9-4-3.6
		c-0.8-1.6-1.2-3.7-1.1-6.2l0-26v-0.2l0-6c-1.2-5.9-6.6-8.2-16.4-7c-5.1,0.6-8,1.1-8.8,1.4c0.2,1.4,0.4,3,0.4,4.8l-0.1,33
		c0.1,2.5-0.3,4.5-1.2,6.2c-0.9,1.6-2.2,2.8-4,3.5c-1.8,0.7-3.6,1.2-5.7,1.4c-2,0.2-4.4,0.2-7.2,0l0.1-58.6c0-5.2,8.4-8,25.2-8.4
		C190.4,266,202.3,273.8,202.3,289.9"/>
	<path id="Fill-2" class="st0" d="M270,290l-0.1,43.8c-2.8,0.2-5.2,0.1-7.2-0.1c-2-0.2-3.9-0.7-5.7-1.4c-1.8-0.7-3.1-1.9-4-3.6
		c-0.8-1.6-1.2-3.7-1.1-6.2l0-26v-0.2l0-6c-1.2-5.9-6.6-8.2-16.3-7c-5.1,0.6-8,1.1-8.8,1.4c0.2,1.4,0.4,3,0.4,4.8l-0.1,33
		c0.1,2.5-0.3,4.5-1.2,6.2c-0.9,1.6-2.2,2.8-4,3.5c-1.8,0.7-3.7,1.2-5.7,1.4c-2,0.2-4.4,0.2-7.2,0l0.1-58.6c0-5.2,8.4-8,25.2-8.4
		C258,266.2,269.9,273.9,270,290"/>
	<path id="Fill-3" class="st0" d="M295,298.1c1.4-1,3.6-1.6,6.7-1.9c3.1-0.3,6-0.5,8.7-0.5c2.7,0,5.1-0.6,7.2-1.7
		c2.1-1.1,3.1-2.8,3-5.1c0-2.1-1.6-3.8-4.9-5.2c-4.6-1.9-9-2.1-13.4-0.5C296.2,285.4,293.8,290.4,295,298.1z M295.6,310.8
		c0,2.5,1.2,4.4,3.7,5.6c2.5,1.3,5.6,1.9,9.4,1.9c3.8,0,7.5-0.1,11.2-0.5c3.6-0.4,7.1-0.8,10.3-1.2c3.2-0.5,5.1-0.7,5.6-0.7
		c0.3,7-1.1,11.9-4.2,14.8c-3.1,2.9-9.3,4.3-18.6,4.3c-12.8,0-22.3-2.6-28.3-7.9c-6-5.2-9-14.2-9-27.1c0-6.4,0.8-11.8,2.5-16.3
		c1.6-4.4,4.1-7.8,7.2-10.1c3.2-2.3,6.7-4,10.6-4.9c3.9-1,8.4-1.4,13.7-1.4c9.9,0,17.3,2.1,21.9,6.3c4.7,4.2,7,10.9,7,20.2
		c0,3.5-0.7,6.4-2.1,8.5c-1.4,2.1-3.2,3.5-5.4,4.3c-2.2,0.7-4.9,1.2-7.9,1.5c-3.1,0.3-6.1,0.4-9.1,0.3c-3-0.1-6.3,0-9.7,0.4
		C301.1,309.1,298.1,309.8,295.6,310.8L295.6,310.8z"/>
	<path id="Fill-4" class="st0" d="M431.3,280.2c0-3.9-0.6-6.8-1.9-8.5c-1.3-1.7-2.7-2.6-4.4-2.6c-1.6,0-3.6-0.1-6-0.3
		c-2.4-0.2-4.3-0.8-5.7-1.9l-0.1,68c5.9,0.3,10.4-0.2,13.5-1.7c3.2-1.5,4.7-4.6,4.5-9.4L431.3,280.2"/>
	<g id="Group-8" transform="translate(438.000000, 267.000000)">
		<path id="Fill-5" class="st0" d="M61.3,23.4l-0.1,43.8c-2.8,0.2-5.2,0.1-7.2-0.1c-2-0.2-3.9-0.7-5.7-1.4c-1.8-0.7-3.1-1.9-4-3.6
			c-0.8-1.6-1.2-3.7-1.1-6.2l0-26v-0.2l0-6c-1.2-5.9-6.6-8.2-16.4-7c-5.1,0.6-8,1.1-8.8,1.4c0.2,1.4,0.4,3,0.4,4.8l-0.1,33
			c0.1,2.5-0.3,4.6-1.2,6.2c-0.9,1.6-2.2,2.8-4,3.5c-1.8,0.7-3.6,1.2-5.6,1.4c-2,0.2-4.4,0.2-7.2,0L0.5,8.5c0-5.2,8.4-8,25.2-8.4
			C49.4-0.5,61.3,7.3,61.3,23.4"/>
		<path id="Fill-7" class="st0" d="M112.2,17.2c-0.2,0-0.5,0-0.7,0c-1,0-2.5,0-4.4-0.1c-1.9,0-3.4-0.1-4.5-0.1c-1.1,0-2.5,0-4.2,0.1
			c-1.7,0.1-3,0.3-4,0.7c-1,0.3-2.1,0.8-3.3,1.4c-1.2,0.6-2.1,1.4-2.8,2.4c-0.6,1-1.2,2.2-1.6,3.7c-0.4,1.5-0.7,3.3-0.7,5.3
			c0,3.4,0,5.9,0.1,7.3c0.1,1.4,0.4,3.2,0.8,5.2c0.5,2,1.2,3.4,2.3,4.1c1,0.7,2.5,1.4,4.5,2.1c2,0.7,4.4,1,7.4,0.8
			c3-0.2,6.7-0.5,11.1-1.1L112.2,17.2z M114.9,65.6c-3.3,0.3-6.2,0.5-8.8,0.7c-2.6,0.2-5.6,0.1-9.1-0.1c-3.4-0.2-6.5-0.7-9.1-1.4
			c-2.6-0.7-5.3-1.8-8-3.4c-2.7-1.6-5-3.5-6.7-5.8c-1.8-2.3-3.2-5.2-4.3-8.8c-1.1-3.6-1.7-7.7-1.7-12.4c0-18,7.3-28.7,21.9-32.3
			c7.5-1.9,18.2-1.7,31.9,0.8c3.3,0.9,5.6,1.8,7,2.7c1.4,0.9,2,2.5,2,4.6L130,59.7v0.1c0.1,0.1,0.1,0.2,0.1,0.2
			c1.7,4.6,2.2,8.6,1.6,12.1c-0.6,3.5-1.9,6.5-3.9,9c-2,2.5-4.7,4.6-8.1,6.2c-3.4,1.6-7.1,2.8-11,3.5c-3.9,0.8-8,1.1-12.5,1.1
			c-4,0-7.5-0.1-10.5-0.4c-3-0.3-5.3-0.6-6.7-1c-1.5-0.4-2.7-0.8-3.6-1.2c-0.9-0.4-1.4-0.8-1.6-1c-0.1-0.2-0.2-0.3-0.3-0.4
			c0-6.8,1-10.8,3.1-12c2-1.2,7.2-1.3,15.6-0.5c1.8,0.2,3.1,0.3,4.1,0.4c6.7,0,11.9-0.9,15.5-2.8C115.5,71.2,116.5,68.7,114.9,65.6
			L114.9,65.6z"/>
	</g>
	<path id="Fill-9" class="st0" d="M373.7,286.2C373.7,286.2,373.7,286.2,373.7,286.2l11.5,14.6c-0.1,0.1-0.2,0.2-0.2,0.3
		c10.2,13.4,18.1,24.1,23.8,31.9c-1.2,0.7-2.7,1.3-4.5,1.8c-1.8,0.5-3.8,0.8-6.3,1c-2.4,0.2-4.9-0.4-7.6-1.6c-2.6-1.2-5-3.1-7.1-5.7
		c-2.4-3-5.6-7.1-9.7-12.5c-4.9,6.6-8.7,11.8-11.5,15.6c-2.5,2.3-5.3,3.6-8.5,3.9c-3.2,0.3-6-0.2-8.3-1.3c-2.3-1.1-3.9-2.5-4.8-4
		c2.7-3.5,10-13.3,21.9-29.2c-10.6-14.3-17.6-23.6-20.8-27.8c0.9-1.6,2.5-2.9,4.8-4c2.3-1.1,5.1-1.5,8.3-1.2c2.3,0.2,4.5,1,6.4,2.3
		l12,15.2C373.3,285.8,373.5,286,373.7,286.2"/>
	<path id="Fill-10" class="st0" d="M382.3,275.2c2.1-2.6,4.5-4.4,7.1-5.6c2.6-1.2,5.2-1.7,7.6-1.6c2.4,0.1,4.5,0.4,6.3,1
		c1.8,0.5,3.2,1.1,4.4,1.9c-4.3,5.8-9.7,13.1-18.6,24.7l-11.4-14.5C380.9,276.9,381.7,276,382.3,275.2"/>
	<path id="Fill-11" class="st0" d="M394.1,261c2.1-2.6,4.5-4.4,7.1-5.6c2.6-1.2,5.2-1.7,7.6-1.6c2.4,0.1,4.5,0.5,6.3,1
		c1.8,0.5,3.2,1.1,4.4,1.9c-4.3,5.8-22,28.1-31,39.8L377,281.8C380.3,277.8,393.4,261.8,394.1,261"/>
	<path id="Fill-12" class="st0" d="M354.9,148.6l-0.4-0.5l-27.7-0.3c-2.9,23.6-23.4,41.9-47.3,41.9h0c-1.5,0-2.9-0.1-4.4-0.2
		c-26.1-2.4-45.4-25.7-42.9-51.8c2.3-24.2,23.1-43.2,47.4-43.1c0.5,0,1,0,1.4,0l0.4-28.1l-0.1-1.6l0-0.9c0.1-3.2,0.5-6.4,1-9.5
		c-0.9,0-1.8-0.1-2.7-0.1c-44.8-0.1-83.2,34.9-87.4,79.5c-2.2,23.3,4.9,46,19.8,64.1c15,18.1,36,29.2,59.3,31.4
		c2.7,0.3,5.4,0.4,8.1,0.4c44.8,0.1,83.2-34.9,87.4-79.5c0.1-0.7,0.1-1.4,0.1-2.2c-0.9,0.1-1.8,0.1-2.7,0.2L354.9,148.6"/>
	<path id="Fill-13" class="st0" d="M417,69.6c-0.3,7.5-2.2,14.7-5.5,21.5l-0.1,0.1c0,0.1-0.1,0.2-0.2,0.3c-0.2,0.4-0.4,0.9-0.7,1.3
		c-8.8,16.8-25.7,27.7-44.4,29l-0.1,0c1.4-1.5,2.3-3.4,2.3-5.6c0-1.4-0.3-2.7-1-3.8l12.1-13c1,0.4,2.1,0.7,3.2,0.7
		c4.5,0,8.1-3.6,8.1-8.1c0-4.5-3.6-8.1-8.1-8.1c-4.5,0-8.1,3.6-8.1,8.1c0,1.4,0.4,2.8,1,4l-12.1,12.9c-1-0.5-2.2-0.7-3.4-0.7
		c-4.5,0-8.1,3.6-8.1,8.1c0,1.4,0.4,2.7,1,3.9l-1.5,1.6l-14.2-0.1l20.4-22.1c0.9,0.4,1.9,0.6,3,0.6c4.5,0,8.1-3.6,8.1-8.1
		c0-1.3-0.3-2.5-0.8-3.6l12.1-13c0.8,0.3,1.7,0.5,2.7,0.5c4.5,0,8.1-3.6,8.1-8.1c0-4.5-3.6-8.1-8.1-8.1c-4.5,0-8.1,3.6-8.1,8.1
		c0,1.6,0.5,3.2,1.3,4.5l-11.6,12.6c-1.1-0.6-2.3-0.9-3.6-0.9c-4.5,0-8.1,3.6-8.1,8.1c0,1.5,0.4,3,1.2,4.2l-23.5,25.4l-15.8-0.1
		l20.5-22.1c1,0.5,2.2,0.7,3.4,0.7c4.5,0,8.1-3.6,8.1-8.1c0-1.4-0.4-2.8-1-3.9l12-12.9c1,0.4,2.1,0.7,3.2,0.7c4.5,0,8.1-3.6,8.1-8.1
		c0-1.4-0.3-2.7-1-3.8l11.9-12.8c0.2-0.2,0.4-0.5,0.5-0.7c0.8,0.3,1.6,0.4,2.5,0.4c4.5,0,8.1-3.6,8.1-8.1c0-4.5-3.6-8.1-8.1-8.1
		c-4.5,0-8.1,3.6-8.1,8.1c0,1.8,0.6,3.4,1.5,4.7c0,0-0.1,0-0.1,0.1l-12.1,12.9c-1-0.4-2.1-0.7-3.3-0.7c-4.5,0-8.1,3.6-8.1,8.1
		c0,1.4,0.3,2.7,0.9,3.8l-12.1,12.9c-0.9-0.4-2-0.6-3-0.6c-4.5,0-8.1,3.6-8.1,8.1c0,1.3,0.3,2.5,0.8,3.5l-22.5,24.1
		c-0.5,0.5-0.8,1.1-0.8,1.8l-0.7,0l0.2-17l27.3-29.5c1.2,0.6,2.5,1,3.9,1c4.5,0,8.1-3.6,8.1-8.1c0-1.6-0.5-3.2-1.3-4.4L357.5,50
		c0.8,0.3,1.6,0.6,2.4,0.7c0.3,0,0.6,0,0.8,0c4.5,0,8.1-3.6,8.1-8.1c0-4.5-3.6-8.1-8.1-8.1h0c-4.5,0-8.1,3.6-8.1,8.1
		c0,1.4,0.4,2.8,1,3.9L341.2,60c-0.8-0.3-1.8-0.5-2.7-0.5c-4.5,0-8.1,3.6-8.1,8.1c0,1.2,0.3,2.3,0.7,3.3l-23.7,25.6l0.2-13.5
		l29-32.5c0.5,0.1,1.1,0.2,1.6,0.2c0,0,0.1,0,0.1,0c0,0,0.1,0,0.1,0c4.5,0,8.1-3.6,8.1-8.1c0-4.5-3.6-8.1-8.1-8.1c0,0-0.1,0-0.1,0
		c0,0-0.1,0-0.1,0c-4.5,0-8.1,3.6-8.1,8.1c0,2,0.7,3.9,1.9,5.3l-24.4,27.3l0.1-9.1l-0.1-1.2c0.4-7.5,2.2-14.7,5.5-21.5l0.4-0.7
		c0.2-0.3,0.3-0.7,0.5-1c8.8-16.8,25.7-27.7,44.4-29l59.1,0.6l-0.8,55l0,0.2L417,69.6z M430.1,1.1l-66.3-0.6l-0.2-0.2l-2.9,0.1
		c-24.1,0.6-46.1,14.3-57.4,35.6c-0.2,0.4-0.4,0.8-0.6,1.2l-0.5,0.9c-4.1,8.3-6.4,17.3-6.8,26.6l0,0.3l0.1,1.4l-0.9,67.1l66.3,0.6
		l0.2,0.2l2.9-0.1c24.1-0.6,46.1-14.3,57.4-35.6c0.3-0.5,0.6-1.1,0.8-1.5c0.1-0.2,0.2-0.4,0.3-0.7c4.1-8.3,6.3-17.3,6.7-26.5l0-0.3
		l-0.1-1.4L430.1,1.1L430.1,1.1z"/>
	<path id="Fill-14" class="st0" d="M135.9,363.9l-4.4,0l0-1c0-2-0.9-3.7-3.1-3.7c-2.4,0-3,1.9-3,4c0,2.4,0.2,3.2,2.5,4.1l3.4,1.3
		c3.9,1.5,4.6,3.9,4.6,8.4c0,5.2-1.9,9-7.6,9c-4.3,0-7.5-3.1-7.5-7.3l0-1.6l4.4,0l0,1.4c0,1.6,0.9,3.1,3.1,3.1c3,0,3.2-1.8,3.2-4.6
		c0-3.3-0.4-3.8-2.5-4.6l-3.1-1.3c-3.8-1.6-4.8-4-4.8-7.9c0-4.6,2.5-8.4,7.5-8.4c4.4,0,7.3,3.5,7.3,6.9L135.9,363.9"/>
	<polyline id="Fill-15" class="st0" points="139.3,355.1 143.7,355.1 143.7,385.7 139.3,385.7 139.3,355.1 	"/>
	<polyline id="Fill-16" class="st0" points="148,355.1 152.2,355.1 157.8,371.3 157.9,371.3 163.5,355.1 167.8,355.1 167.7,385.7 
		163.3,385.7 163.4,367.1 163.3,367.1 158.9,380.3 156.7,380.3 152.4,367.1 152.3,367.1 152.3,385.7 147.9,385.7 148,355.1 	"/>
	<path id="Fill-17" class="st0" d="M176.3,369.7l2.1,0c3.6,0,3.6-2.1,3.6-5.2c0-2.9,0-5.2-3.4-5.3l-2.3,0L176.3,369.7z M171.9,355.1
		l6.6,0c2.4,0,4.2,0.6,5.7,2.2c1.5,1.6,2,3.5,2,7.2c0,2.7-0.2,4.5-1.3,6.1c-1.2,2-3.1,3.2-6.4,3.2l-2.2,0l0,12l-4.4,0L171.9,355.1
		L171.9,355.1z"/>
	<polyline id="Fill-18" class="st0" points="189.4,355.2 193.8,355.2 193.7,381.4 202.4,381.4 202.4,385.8 189.3,385.8 189.4,355.2 
			"/>
	<g id="Group-22" transform="translate(205.000000, 355.000000)">
		<g id="Clip-20">
		</g>
		<defs>
			<filter id="Adobe_OpacityMaskFilter" filterUnits="userSpaceOnUse" x="0.2" y="0.2" width="13.1" height="30.6">
				<feColorMatrix  type="matrix" values="1 0 0 0 0  0 1 0 0 0  0 0 1 0 0  0 0 0 1 0"/>
			</filter>
		</defs>
		<mask maskUnits="userSpaceOnUse" x="0.2" y="0.2" width="13.1" height="30.6" id="mask-2_1_">
			<g class="st1">
				<polygon id="path-1_1_" class="st2" points="0.2,33.9 20.3,33.9 20.3,0.2 0.2,0.2 				"/>
			</g>
		</mask>
		<polyline id="Fill-19" class="st3" points="0.3,0.2 13.4,0.2 13.4,4.3 4.7,4.3 4.7,13.3 12.2,13.3 12.2,17.4 4.7,17.4 4.6,26.4 
			13.3,26.4 13.3,30.8 0.2,30.8 0.3,0.2 		"/>
		<defs>
			<filter id="Adobe_OpacityMaskFilter_1_" filterUnits="userSpaceOnUse" x="15.9" y="26.4" width="4.4" height="7.6">
				<feColorMatrix  type="matrix" values="1 0 0 0 0  0 1 0 0 0  0 0 1 0 0  0 0 0 1 0"/>
			</filter>
		</defs>
		<mask maskUnits="userSpaceOnUse" x="15.9" y="26.4" width="4.4" height="7.6" id="mask-2_2_">
			<g class="st4">
				<polygon id="path-1_2_" class="st2" points="0.2,33.9 20.3,33.9 20.3,0.2 0.2,0.2 				"/>
			</g>
		</mask>
		<polyline id="Fill-21" class="st5" points="15.9,26.4 20.3,26.4 20.3,30.8 15.9,34 15.9,26.4 		"/>
	</g>
	<path id="Fill-23" class="st0" d="M236.9,362.5c0-5,3.8-7.5,7.4-7.5c3.6,0,7.3,2.5,7.3,7.5l0,1.5l-4.4,0l0-1.5c0-2.1-1.4-3.1-3-3.1
		c-1.6,0-3,1-3,3.1l0,16.2c0,2.1,1.4,3.1,3,3.1c1.6,0,3-1,3-3.1l0-5.8l-3.5,0l0-3.9l7.9,0l0,9.6c0,5-3.8,7.5-7.4,7.5
		c-3.6,0-7.3-2.5-7.3-7.5L236.9,362.5"/>
	<path id="Fill-24" class="st0" d="M259.9,368.9l2.5,0c3.1,0,3.5-1.7,3.5-4.8c0-3.1-0.5-4.8-3.7-4.8l-2.3,0L259.9,368.9z
		 M255.5,355.3l7.1,0c5.2,0,7.7,3.1,7.7,9c0,3.5-1,6.1-3.8,7.6l4.7,14l-4.6,0l-4.1-13.1l-2.6,0l0,13.1l-4.4,0L255.5,355.3
		L255.5,355.3z"/>
	<polyline id="Fill-25" class="st0" points="273.8,355.3 286.9,355.3 286.9,359.4 278.2,359.4 278.2,368.4 285.8,368.4 285.8,372.5 
		278.2,372.5 278.2,381.5 286.9,381.5 286.9,385.9 273.8,385.9 273.8,355.3 	"/>
	<polyline id="Fill-26" class="st0" points="289.7,355.3 302.8,355.3 302.8,359.5 294.1,359.4 294.1,368.4 301.7,368.4 301.7,372.6 
		294.1,372.6 294.1,381.5 302.8,381.6 302.8,385.9 289.7,385.9 289.7,355.3 	"/>
	<polyline id="Fill-27" class="st0" points="305.5,355.3 309.7,355.3 316.3,373.8 316.4,373.8 316.4,355.4 320.8,355.4 320.7,386 
		316.6,386 309.9,367.6 309.9,367.6 309.8,386 305.4,386 305.5,355.3 	"/>
	<path id="Fill-28" class="st0" d="M339.3,368.7c1.1-1,2.6-2.7,2.6-4.8c0-1.1-0.8-2.2-2.1-2.2c-1.3,0-2.2,1.2-2.2,2.6
		C337.6,365.6,338.4,367.1,339.3,368.7z M339.3,382.8c1.3,0,2.6-1,3.3-1.8l-4.2-6.7c-1.3,1.3-2.3,2.8-2.3,4.7
		C336.1,381.1,337.4,382.8,339.3,382.8z M344.4,383.7c-1.7,1.7-3.5,2.6-5.9,2.6c-3.5,0-6.3-2.8-6.3-7.1c0-3.4,1.8-5.8,4.2-7.9
		c-1.5-2.2-2.7-4.5-2.7-7.1c0-3.3,2-5.9,6-5.9c3.7,0,5.8,2.5,5.8,5.6c0,2.8-2.1,5.5-4.5,7.7c1.1,1.7,2.5,4.3,4,6.4l2.4-3.2l2.7,1.9
		l-3.3,4.2l3.3,5.3l-4.4,0L344.4,383.7L344.4,383.7z"/>
	<path id="Fill-29" class="st0" d="M375.3,379.2c0,3.8-3.1,7.1-7,7.1c-3.4,0-7.2-1.6-7.2-7.2l0-16.9c0-4,2.9-7,7.1-7
		c4,0,7,3.1,7,7.3l0,1.7l-4.4,0l0-1.5c0-1.7-1-3.2-2.7-3.2c-2.2,0-2.7,1.5-2.7,3.6l0,15.7c0,1.8,0.7,3.1,2.7,3.1
		c1.2,0,2.8-0.7,2.8-3.1l0-1.5l4.4,0L375.3,379.2"/>
	<polyline id="Fill-30" class="st0" points="378.9,355.5 383.3,355.5 383.3,381.7 392,381.7 392,386.1 378.9,386.1 378.9,355.5 	"/>
	<polyline id="Fill-31" class="st0" points="394.8,355.5 407.9,355.5 407.9,359.6 399.2,359.6 399.2,368.6 406.8,368.6 406.8,372.7 
		399.2,372.7 399.2,381.7 407.9,381.7 407.9,386.1 394.8,386.1 394.8,355.5 	"/>
	<polyline id="Fill-32" class="st0" points="419.3,386.1 415.4,386.1 409.2,355.5 413.9,355.5 417.3,376.9 417.4,376.9 421,355.5 
		425.6,355.5 419.3,386.1 	"/>
	<polyline id="Fill-33" class="st0" points="428.2,355.5 441.3,355.6 441.3,359.7 432.6,359.7 432.6,368.7 440.2,368.7 440.2,372.8 
		432.6,372.8 432.6,381.8 441.3,381.8 441.3,386.2 428.2,386.1 428.2,355.5 	"/>
	<path id="Fill-34" class="st0" d="M448.5,369.2l2.5,0c3.1,0,3.5-1.7,3.5-4.8c0-3.1-0.5-4.8-3.7-4.8l-2.3,0L448.5,369.2z
		 M444.2,355.6l7.1,0c5.2,0,7.7,3.1,7.7,9c0,3.5-1,6.1-3.8,7.6l4.7,14l-4.6,0l-4.1-13.1l-2.6,0l0,13.1l-4.4,0L444.2,355.6
		L444.2,355.6z"/>
	<g id="Group-38" transform="translate(0.000000, 247.000000)">
		<g id="Clip-36">
		</g>
		<defs>
			<filter id="Adobe_OpacityMaskFilter_2_" filterUnits="userSpaceOnUse" x="462.2" y="134.8" width="4.4" height="4.4">
				<feColorMatrix  type="matrix" values="1 0 0 0 0  0 1 0 0 0  0 0 1 0 0  0 0 0 1 0"/>
			</filter>
		</defs>
		<mask maskUnits="userSpaceOnUse" x="462.2" y="134.8" width="4.4" height="4.4" id="mask-4_1_">
			<g class="st6">
				<polygon id="path-3_1_" class="st2" points="0,0 0,139.2 466.6,139.2 466.6,0 				"/>
			</g>
		</mask>
		<polyline id="Fill-35" class="st7" points="462.2,134.8 466.6,134.8 466.6,139.2 462.2,139.2 462.2,134.8 		"/>
		<defs>
			<filter id="Adobe_OpacityMaskFilter_3_" filterUnits="userSpaceOnUse" x="0" y="0" width="74.6" height="94.4">
				<feColorMatrix  type="matrix" values="1 0 0 0 0  0 1 0 0 0  0 0 1 0 0  0 0 0 1 0"/>
			</filter>
		</defs>
		<mask maskUnits="userSpaceOnUse" x="0" y="0" width="74.6" height="94.4" id="mask-4_2_">
			<g class="st8">
				<polygon id="path-3_2_" class="st2" points="0,0 0,139.2 466.6,139.2 466.6,0 				"/>
			</g>
		</mask>
		<path id="Fill-37" class="st9" d="M47.4,94.3C42,94.1,37.1,93.5,33,92.6c-4-0.9-8.3-2.5-12.7-4.8c-4.3-2.2-7.9-4.9-10.6-8.3
			c-2.8-3.4-5.1-7.8-7-13.4C0.9,60.6,0,54.1,0,46.9C0.1,15.4,15.8,0,48,0c6.5,0,13.7,0.6,21.6,1.9c1.4,0.2,3,0.5,4.8,0.8
			c0.6,6.5-0.3,11.2-2.8,14c-2,2.2-4.9,3.3-9.1,3.3c-0.9,0-2.9,0-6.4-0.1c-3-0.1-5.2-0.1-6.7-0.1c-1.5,0-3.6,0.1-6.2,0.4
			c-2.7,0.3-4.9,0.8-6.5,1.5c-1.5,0.6-3.2,1.6-5.1,2.9c-2,1.4-3.6,3.1-4.7,5.2c-1,1.9-1.9,4.4-2.6,7.3c-0.7,2.9-1,6.3-1,9.9
			c0,3.5,0.3,6.7,0.9,9.4c0.6,2.7,1.4,5.1,2.3,6.9c1,2.1,2.6,3.8,4.6,5.2c1.9,1.3,3.8,2.4,5.7,3.1c1.9,0.8,4.5,1.3,7.6,1.7
			c3,0.4,5.9,0.6,8.4,0.6c2.3,0.1,5.4,0.1,9.9,0.1c1.4,0,2.6,0.2,3.7,0.5c1,0.3,1.9,0.8,2.6,1.3c0.7,0.5,1.3,1.1,1.8,1.9
			c0.6,0.9,1,1.7,1.3,2.6c0.3,0.9,0.5,1.8,0.7,2.9c0.2,1,0.2,2,0.2,2.9c0,1,0,2-0.1,2.9c-0.1,1-0.1,1.9-0.2,2.6
			c0,0.3-0.1,0.8-0.2,1.3c-4,0.5-7.8,0.8-11.3,1.1C57.5,94.4,52.8,94.5,47.4,94.3"/>
	</g>
	<path id="Fill-39" class="st0" d="M85.4,301.3c0.2,2.8,0.6,5,1,6.7c0.4,1.6,1.2,3.3,2.4,4.9c1.2,1.6,2.9,2.8,5.2,3.5
		c2.3,0.7,5.3,1.1,8.9,1.1c2.8,0,5.2-0.4,7.2-1.3c2-0.9,3.5-1.9,4.5-3c1-1.1,1.7-2.5,2.3-4.1c0.6-1.6,0.9-2.8,1-3.6
		c0.1-0.8,0.1-1.7,0.1-2.6c0-0.1,0-0.5,0-1.3c0-0.8,0-1.4,0-1.9c0-0.5,0-1.3-0.1-2.3c-0.1-1-0.2-1.9-0.4-2.7
		c-0.2-0.8-0.5-1.7-0.8-2.7c-0.4-1-0.8-1.9-1.3-2.7c-0.5-0.8-1.2-1.6-2-2.4c-0.8-0.8-1.8-1.5-2.8-2c-1-0.5-2.3-0.9-3.8-1.3
		c-1.5-0.3-3.1-0.5-4.9-0.5c-3.2,0-5.9,0.4-8.2,1.3c-2.3,0.9-3.9,1.9-4.9,3.1c-1,1.2-1.9,2.7-2.4,4.6c-0.6,1.9-0.9,3.3-0.9,4.4
		c0,1,0,2.4,0.1,4C85.4,300.8,85.4,301.1,85.4,301.3z M67.5,300.2c-0.1-0.5-0.1-1.1-0.2-1.9c0-0.8,0.1-2.4,0.4-4.7
		c0.3-2.3,0.7-4.6,1.4-6.7c0.6-2.1,1.8-4.5,3.4-7c1.6-2.6,3.6-4.8,6-6.6c2.4-1.8,5.6-3.4,9.6-4.6c4-1.2,8.6-1.8,13.7-1.8
		c3.6,0,6.9,0.3,10,0.9c3,0.6,5.7,1.3,7.9,2.3c2.2,1,4.2,2.2,5.9,3.6c1.7,1.4,3.1,2.9,4.3,4.3c1.1,1.4,2.1,3.1,2.8,5
		c0.8,1.9,1.3,3.6,1.7,5c0.4,1.4,0.7,3.1,0.8,4.9c0.2,1.9,0.3,3.3,0.3,4.3c0,1,0,2.2,0,3.7c0,1.5-0.1,2.3-0.1,2.5
		c0,1.3,0,2.4-0.1,3.5c-0.1,1-0.3,2.7-0.7,4.9c-0.4,2.2-1,4.3-1.7,6c-0.7,1.8-1.9,3.7-3.4,5.8c-1.6,2.1-3.4,3.8-5.5,5.2
		c-2.1,1.4-4.9,2.6-8.3,3.5c-3.4,1-7.2,1.4-11.5,1.4c-4.4,0-8.3-0.3-11.8-0.9c-3.4-0.6-6.4-1.3-8.8-2.2c-2.4-0.9-4.5-2.2-6.3-3.8
		c-1.8-1.6-3.3-3.3-4.4-4.9c-1.1-1.7-2-3.8-2.8-6.3c-0.7-2.5-1.2-4.9-1.6-7.2C68.1,306,67.8,303.3,67.5,300.2L67.5,300.2z"/>
</g>
</svg>
