<svg xmlns="http://www.w3.org/2000/svg" viewBox="0 0 118.95 87.42"><defs><style>.cls-1{fill:#00a983;}.cls-2{fill:#fff;}.cls-3{isolation:isolate;}.cls-4{fill:#1a1a1a;}.cls-5{fill:#eaeaea;}.cls-6{fill:#35c94a;}.cls-7{fill:#fdbd41;}.cls-8{fill:#c9c9c9;}.cls-9{fill:#fb635d;}</style></defs><title>servicesIllustration</title><g id="Calque_2" data-name="Calque 2"><g id="Calque_1-2" data-name="Calque 1"><polygon class="cls-1" points="35.5 43.08 35.53 47.84 26.4 50.29 26.37 45.53 35.5 43.08"/><path class="cls-1" d="M15.19,66.63l8.87-2.38,0,6.67-8.87,2.37Zm8.15,3.54,0-4.76-7.34,2,0,4.76,7.35-2"/><path class="cls-1" d="M38,60.51l8.87-2.37,0,6.66-8.87,2.37Zm8.14,3.54,0-4.76-7.34,2,0,4.76,7.34-2"/><polygon class="cls-1" points="46.14 59.29 46.17 64.05 38.83 66.02 38.8 61.26 46.14 59.29"/><path class="cls-1" d="M15.26,38l14.47-3.88,0,6.66L15.3,44.69Zm13.74,2,0-4.76L16,38.77l0,4.76L29,40.07"/><path class="cls-1" d="M41.6,52.88a1.73,1.73,0,0,1,.06.47,1.65,1.65,0,0,1-.06.49,1.67,1.67,0,0,1-1.07,1.24.87.87,0,0,1-1.08-.66,1.35,1.35,0,0,1-.07-.46,2.07,2.07,0,0,1,.06-.5,1.72,1.72,0,0,1,1.07-1.24A.89.89,0,0,1,41.6,52.88Zm-1.08,1.25a.59.59,0,0,0,.38-.58c0-.27-.17-.43-.38-.38a.61.61,0,0,0-.38.58c0,.27.18.44.38.38"/><path class="cls-2" d="M41.6,52.88l7.29-2v1l-7.3,2a1.65,1.65,0,0,0,.06-.49A1.73,1.73,0,0,0,41.6,52.88Z"/><path class="cls-1" d="M40.52,53.17c.21-.05.38.11.38.38a.59.59,0,0,1-.38.58c-.2.06-.37-.11-.38-.38A.61.61,0,0,1,40.52,53.17Z"/><g class="cls-3"><polygon class="cls-4" points="48.44 39.62 48.47 44.38 39.33 46.83 39.3 42.06 48.44 39.62"/><path class="cls-2" d="M38.54,41.32,49.2,38.46l0,6.66L38.58,48Zm9.93,3.06,0-4.76L39.3,42.06l0,4.77,9.14-2.45"/><polygon class="cls-4" points="34.72 62.35 34.75 67.11 27.41 69.08 27.38 64.32 34.72 62.35"/><path class="cls-2" d="M26.61,63.57l8.87-2.37,0,6.66-8.87,2.37Zm8.14,3.54,0-4.76-7.34,2,0,4.76,7.34-2"/><path class="cls-2" d="M32,33.54l14.46-3.88,0,6.66L32.05,40.2Zm13.74,2,0-4.76L32.78,34.28l0,4.77,12.94-3.47"/><polygon class="cls-4" points="32.81 39.05 32.78 34.28 45.72 30.82 45.75 35.58 32.81 39.05"/><path class="cls-1" d="M25.6,44.79l10.66-2.86,0,6.66L25.64,51.45Zm9.93,3.05,0-4.76-9.13,2.45,0,4.76,9.13-2.45"/><path class="cls-1" d="M21.8,58.19a1.31,1.31,0,0,1,.07.46,1.71,1.71,0,0,1-.06.5,1.69,1.69,0,0,1-1.07,1.23.87.87,0,0,1-1.08-.66,1.64,1.64,0,0,1-.07-.46,1.68,1.68,0,0,1,.07-.5,1.71,1.71,0,0,1,1.06-1.24A.88.88,0,0,1,21.8,58.19Zm-1.07,1.24a.57.57,0,0,0,.38-.58c0-.26-.17-.43-.38-.37a.59.59,0,0,0-.38.58c0,.26.18.43.38.37"/><polygon class="cls-1" points="23.31 65.41 23.34 70.17 15.99 72.14 15.96 67.38 23.31 65.41"/><path class="cls-4" d="M5.41,26.85,57.93,12.78l.36,58.5L5.78,85.36Zm43.49,25v-1l-7.29,2a.89.89,0,0,0-1.09-.66,1.72,1.72,0,0,0-1.07,1.24L21.8,58.19a.88.88,0,0,0-1.08-.67,1.71,1.71,0,0,0-1.06,1.24l-6.54,1.75v1l6.54-1.75a.87.87,0,0,0,1.08.66,1.69,1.69,0,0,0,1.07-1.23l17.64-4.73a.87.87,0,0,0,1.08.66,1.67,1.67,0,0,0,1.07-1.24l7.3-2M15.26,38l0,6.66,14.47-3.88,0-6.66L15.26,38M32,33.54l0,6.66,14.46-3.88,0-6.66L32,33.54m4.25,8.39L25.6,44.79l0,6.66L36.3,48.59l0-6.66m13,3.19,0-6.66L38.54,41.32l0,6.66,10.66-2.86M12.66,48.25l0,6.66,10.66-2.85,0-6.66L12.66,48.25M24.1,70.92l0-6.67-8.87,2.38,0,6.66,8.87-2.37M46.94,64.8l0-6.66L38,60.51l0,6.66,8.87-2.37M35.52,67.86l0-6.66-8.87,2.37,0,6.66,8.87-2.37"/><path class="cls-1" d="M39.44,53.46a2.07,2.07,0,0,0-.06.5,1.35,1.35,0,0,0,.07.46L21.81,59.15a1.71,1.71,0,0,0,.06-.5,1.31,1.31,0,0,0-.07-.46Z"/><polygon class="cls-4" points="13.46 53.76 13.43 49 22.56 46.55 22.59 51.31 13.46 53.76"/><path class="cls-2" d="M12.66,48.25,23.32,45.4l0,6.66L12.7,54.91Zm9.93,3.06,0-4.76L13.43,49l0,4.76,9.13-2.45"/><polygon class="cls-1" points="28.97 35.3 29 40.07 16.07 43.53 16.04 38.77 28.97 35.3"/><path class="cls-5" d="M56.36,5.09l2.29-.61.05,8.09-.77.21L5.41,26.85l-.76.2L4.6,19,55.6,5.3ZM52.21,11.3V9.7c0-.61-.4-1-.89-.87L18.05,17.74a1.4,1.4,0,0,0-.87,1.34v1.6c0,.61.41,1,.89.87l33.26-8.91a1.4,1.4,0,0,0,.87-1.34M14.15,21.64a1.19,1.19,0,0,0,.76-1.15c0-.53-.35-.86-.77-.75a1.21,1.21,0,0,0-.76,1.16c0,.53.35.86.77.74m-3.05.82a1.2,1.2,0,0,0,.76-1.16c0-.52-.34-.86-.77-.74a1.18,1.18,0,0,0-.75,1.15c0,.53.35.86.76.75m-3,.81a1.19,1.19,0,0,0,.76-1.15c0-.52-.35-.86-.77-.75a1.2,1.2,0,0,0-.75,1.16c0,.53.34.86.76.74"/><path class="cls-2" d="M51.31,8.83c.49-.13.88.26.89.87v1.6a1.4,1.4,0,0,1-.87,1.34L18.08,21.55c-.48.13-.88-.26-.89-.87v-1.6a1.4,1.4,0,0,1,.87-1.34Z"/><path class="cls-6" d="M14.14,19.74c.42-.11.76.22.77.75a1.19,1.19,0,0,1-.76,1.15c-.42.12-.77-.21-.77-.74A1.21,1.21,0,0,1,14.14,19.74Z"/><path class="cls-7" d="M11.09,20.56c.43-.12.76.22.77.74a1.2,1.2,0,0,1-.76,1.16c-.41.11-.76-.22-.76-.75A1.18,1.18,0,0,1,11.09,20.56Z"/><polygon class="cls-4" points="4.6 18.96 4.66 27.05 5.42 26.85 5.78 85.36 58.29 71.28 57.93 12.78 58.7 12.57 59.06 72.03 5.02 86.51 5 83.66 5 82.71 4.6 18.96"/><polygon class="cls-8" points="54.04 0 54.06 2.85 53.3 3.06 53.29 1.15 0.77 15.23 1.17 80.87 2.69 80.46 2.7 81.42 0.42 82.03 0 14.48 54.04 0"/></g><path class="cls-9" d="M8.05,21.37c.42-.11.76.23.77.75a1.19,1.19,0,0,1-.76,1.15c-.42.12-.76-.21-.76-.74A1.2,1.2,0,0,1,8.05,21.37Z"/><path class="cls-2" d="M13.12,60.51l6.54-1.75a1.68,1.68,0,0,0-.07.5,1.64,1.64,0,0,0,.07.46l-6.54,1.75Z"/><path class="cls-1" d="M20.73,58.48c.21-.06.38.11.38.37a.57.57,0,0,1-.38.58c-.2.06-.38-.11-.38-.37A.59.59,0,0,1,20.73,58.48Z"/><polygon class="cls-8" points="56.34 2.24 56.36 5.09 55.6 5.29 55.59 3.39 3.06 17.47 3.47 83.12 5 82.71 5 83.66 2.72 84.27 2.7 81.42 2.69 80.46 2.3 16.72 53.3 3.06 54.06 2.85 56.34 2.24"/><polygon class="cls-8" points="55.59 3.39 55.6 5.29 4.6 18.96 5 82.71 3.47 83.12 3.06 17.47 55.59 3.39"/><polygon class="cls-8" points="76.58 9.65 76.6 7.84 78.87 8.71 78.84 10.52 76.58 9.65"/><path class="cls-2" d="M101.16,42.59a2.68,2.68,0,0,1,1.49,2.4c0,1-.71,1.54-1.55,1.22L82.23,39a2.62,2.62,0,0,1-1.49-2.38c0-1,.7-1.56,1.54-1.24Zm0,2.72c.42.16.76-.12.77-.61a1.32,1.32,0,0,0-.75-1.21L82.27,36.25c-.42-.16-.76.11-.77.62a1.31,1.31,0,0,0,.74,1.19l18.88,7.25"/><g class="cls-3"><path class="cls-1" d="M78.7,46.26l12,4.59-.07,5.38-12-4.6ZM89.85,55l.06-3.57-10.46-4L79.39,51l10.46,4"/><path class="cls-2" d="M98.05,47.76A1.32,1.32,0,0,1,98.79,49c0,.5-.35.77-.77.61L85.18,44.63a1.31,1.31,0,0,1-.74-1.19c0-.49.35-.77.77-.61Z"/><path class="cls-2" d="M92.41,51.52l12,4.6-.08,5.37-12-4.6Zm11.15,8.78,0-3.57-10.46-4-.05,3.57,10.46,4"/><polygon class="cls-4" points="103.61 56.73 103.56 60.3 93.1 56.28 93.15 52.71 103.61 56.73"/><path class="cls-4" d="M79.59,10.81l-.75-.29-2.26-.87-.76-.29L72,7.91l-.93,64.14,40,15.37,0-2.72v-.9l0-1.81v-.9l.84-57.81ZM110.4,86.22,71.88,71.43l.9-62.33,38.53,14.79-.91,62.33"/><polygon class="cls-1" points="89.91 51.47 89.86 55.04 79.39 51.02 79.44 47.45 89.91 51.47"/><polygon class="cls-8" points="111.19 83.8 111.22 81.99 114.24 83.15 114.21 84.96 111.19 83.8"/><polygon class="cls-8" points="114.21 84.96 114.24 83.15 115 83.44 114.96 86.15 111.18 84.7 111.19 83.8 114.21 84.96"/><polygon class="cls-8" points="75.82 9.36 75.86 6.65 78.88 7.8 78.87 8.71 76.6 7.84 76.58 9.65 75.82 9.36"/><path class="cls-2" d="M98.06,46.86a2.62,2.62,0,0,1,1.48,2.38c0,1-.7,1.55-1.53,1.22L85.17,45.54a2.66,2.66,0,0,1-1.49-2.39c0-1,.71-1.54,1.54-1.22Zm0,2.7c.42.16.76-.11.77-.61a1.32,1.32,0,0,0-.74-1.19L85.21,42.83c-.42-.16-.76.12-.77.61a1.31,1.31,0,0,0,.74,1.19L98,49.56"/><path class="cls-2" d="M101.14,43.49a1.32,1.32,0,0,1,.75,1.21c0,.49-.35.77-.77.61L82.24,38.06a1.31,1.31,0,0,1-.74-1.19c0-.51.35-.78.77-.62Z"/><path class="cls-4" d="M72.78,9.1l38.53,14.79-.91,62.33L71.88,71.43Zm9.5,26.24c-.84-.32-1.53.24-1.54,1.24A2.62,2.62,0,0,0,82.23,39l18.87,7.25c.84.32,1.53-.23,1.55-1.22a2.68,2.68,0,0,0-1.49-2.4L82.28,35.34m22,26.15.08-5.37-12-4.6-.08,5.37,12,4.6M90.6,56.23l.07-5.38-12-4.59-.07,5.37,12,4.6m8.94-7a2.62,2.62,0,0,0-1.48-2.38L85.22,41.93c-.83-.32-1.52.23-1.54,1.22a2.66,2.66,0,0,0,1.49,2.39L98,50.46c.83.33,1.52-.22,1.53-1.22"/><polygon class="cls-8" points="79.62 9 115.12 22.62 114.25 82.25 111.23 81.09 112.07 23.28 79.59 10.81 79.62 9"/><polygon class="cls-8" points="79.63 8.09 115.89 22.01 115.01 82.54 114.25 82.25 115.12 22.62 79.62 9 79.63 8.09"/><polygon class="cls-8" points="118.95 20.46 118.02 84.6 115 83.44 114.24 83.15 111.22 81.99 111.23 81.09 114.25 82.25 115.01 82.54 117.28 83.41 118.18 21.08 79.66 6.29 79.63 8.09 79.62 9 79.59 10.81 78.84 10.52 78.87 8.71 78.88 7.8 78.92 5.1 118.95 20.46"/></g></g></g></svg>