<svg xmlns="http://www.w3.org/2000/svg" viewBox="0 0 500 500"><defs><style>.cls-1{fill:#fff;}.cls-2{opacity:0.2;}.cls-3{fill:#00a983;}</style></defs><title>blank</title><g id="Calque_2" data-name="Calque 2"><g id="Calque_2-2" data-name="Calque 2"><rect class="cls-1" width="500" height="500"/><g class="cls-2"><g id="CO"><path id="Tracé_30" data-name="Tracé 30" class="cls-3" d="M109.3,323.41a80.65,80.65,0,0,1-31.68-29.88,82.57,82.57,0,0,1-11.4-43.29,82.23,82.23,0,0,1,11.51-43.39A79.94,79.94,0,0,1,109.4,177a95.43,95.43,0,0,1,45.4-10.66,98.34,98.34,0,0,1,39.8,7.81,77.11,77.11,0,0,1,29.46,22.6L195,223a47.8,47.8,0,0,0-37.9-18.89,46.08,46.08,0,0,0-23.33,5.8,39.29,39.29,0,0,0-15.85,16.26,49.37,49.37,0,0,0-5.59,24.07,50.72,50.72,0,0,0,5.59,24.08,40.5,40.5,0,0,0,15.85,16.25A48.22,48.22,0,0,0,195,277.48l28.91,26.29a76,76,0,0,1-29.43,22.6,98.14,98.14,0,0,1-39.8,7.81A94.75,94.75,0,0,1,109.3,323.41Z"/><path id="Tracé_31" data-name="Tracé 31" class="cls-3" d="M297.64,323.31A80.84,80.84,0,0,1,254,250.24a80.82,80.82,0,0,1,43.6-73.06,102.43,102.43,0,0,1,91.86,0c1.26.76,2.53,1.38,3.8,2.22l26.07-11-9.5,24a82.85,82.85,0,0,1,11.51,14.78,85.71,85.71,0,0,1,0,86.15,80.37,80.37,0,0,1-32,30,96.78,96.78,0,0,1-45.93,10.87A95.14,95.14,0,0,1,297.64,323.31Zm68-32.73a41.35,41.35,0,0,0,15.63-16.26,53.69,53.69,0,0,0,0-48.15,41.26,41.26,0,0,0-15.63-16.25,43.23,43.23,0,0,0-22.06-5.81,42.26,42.26,0,0,0-22.07,5.81,41.3,41.3,0,0,0-15.62,16.25,53.69,53.69,0,0,0,0,48.15,41.39,41.39,0,0,0,15.62,16.26,43.29,43.29,0,0,0,22.07,5.8,42.16,42.16,0,0,0,22.07-5.81Z"/></g></g></g></g></svg>