<svg xmlns="http://www.w3.org/2000/svg" xmlns:xlink="http://www.w3.org/1999/xlink" viewBox="0 0 398.67 451.44"><defs><style>.cls-1{fill:none;stroke:#6ddabe;}.cls-1,.cls-3{stroke-linecap:round;stroke-linejoin:round;stroke-width:5px;}.cls-2{fill:url(#Dégradé_sans_nom_26);}.cls-3{fill:#003d57;stroke:#fff;}.cls-4{fill:url(#Dégradé_sans_nom_26-2);}.cls-5{fill:url(#Dégradé_sans_nom_26-3);}.cls-6{fill:url(#Dégradé_sans_nom_26-4);}.cls-7{fill:url(#Dégradé_sans_nom_26-5);}.cls-8{fill:url(#Dégradé_sans_nom_26-6);}</style><linearGradient id="Dégradé_sans_nom_26" x1="-278.13" y1="-1072.15" x2="67.83" y2="-726.19" gradientTransform="translate(684.38 1107.72) rotate(-27.05)" gradientUnits="userSpaceOnUse"><stop offset="0" stop-color="#00455b"/><stop offset="1" stop-color="#02264b"/></linearGradient><linearGradient id="Dégradé_sans_nom_26-2" x1="-129.74" y1="-1220.55" x2="216.23" y2="-874.58" xlink:href="#Dégradé_sans_nom_26"/><linearGradient id="Dégradé_sans_nom_26-3" x1="-134.88" y1="-1215.4" x2="211.09" y2="-869.44" xlink:href="#Dégradé_sans_nom_26"/><linearGradient id="Dégradé_sans_nom_26-4" x1="-240.82" y1="-1109.46" x2="105.15" y2="-763.5" xlink:href="#Dégradé_sans_nom_26"/><linearGradient id="Dégradé_sans_nom_26-5" x1="-141.54" y1="-1208.75" x2="204.43" y2="-862.78" xlink:href="#Dégradé_sans_nom_26"/><linearGradient id="Dégradé_sans_nom_26-6" x1="-142.54" y1="-1207.75" x2="203.43" y2="-861.78" xlink:href="#Dégradé_sans_nom_26"/></defs><title>main-leaf</title><g id="Calque_2" data-name="Calque 2"><g id="Calque_2-2" data-name="Calque 2"><path class="cls-1" d="M289,448.94c3.38-35.28,8.18-84.1,14.14-141.73,0,0,.35-.54,1-1.65"/><path class="cls-2" d="M212.3,371s-27.52,58.43-109.45,40.75c-44.2-9.53-69.92-66.43-84.24-116.79,12.87,4.67,28.36,6.95,44.74,1.58,0,0,21.25-10.85-7.81-12.39-16.26-.85-32.2-7.47-43.06-13.13a520.25,520.25,0,0,1-10-57.13h.15L33.14,230a232.24,232.24,0,0,1,24.71,15.16C87.54,266.09,163.5,321.23,212.3,371Z"/><path class="cls-3" d="M2.66,213.85H2.51a.45.45,0,0,0,0-.1Z"/><path class="cls-4" d="M263.67,136.51q2.76,6.33,4.77,12.34c.87,2.53,1.63,5,2.31,7.46,13.28,48.12-7.48,79.88-24.19,96.52a91.35,91.35,0,0,1-17.56,14q-3.8-12.75-7.89-25.6c-52.26-163.3-39-122.92-75.81-203.79L130.76.22C146.14,6.79,163,19.08,178.67,32.7h0C184.24,43,190.87,58,192,73.64c2,27.69,11.85,7.1,11.85,7.1a60.68,60.68,0,0,0,2.46-22c19.61,19.93,33.44,36.84,33.44,36.84A218.7,218.7,0,0,1,263.67,136.51Z"/><path class="cls-5" d="M130.76.22,145.3,37.44c36.84,80.87,23.55,40.49,75.81,203.79q4.09,12.84,7.89,25.6a153.83,153.83,0,0,1-32.08.63c-28.73-2.28-69.28-13.16-88.86-53.88-9-18.76-13.61-43.86-10.51-77.37l14.86-64.12S132.09,17.4,130.76.22Z"/><path class="cls-1" d="M212.29,371c16.44,16.76,29.81,32.91,37.28,46.92A301.55,301.55,0,0,1,264,448.94"/><path class="cls-1" d="M229,266.83c20.52,68.94,40.51,131.11,44.63,158.85.77,5.19,1.33,13.57,1.73,23.26"/><path class="cls-6" d="M212.3,371C163.5,321.23,87.54,266.09,57.85,245.18A232.24,232.24,0,0,0,33.14,230L2.66,213.85c32.27-2.5,58.15-3.13,74.91-3.13a162.75,162.75,0,0,1,30.49,2.86c19.58,40.72,60.13,51.6,88.86,53.88C231.28,315.59,212.3,371,212.3,371Z"/><path class="cls-7" d="M386.49,266.82c-27.32,47.83-66.45,43.12-82.37,38.74,6.4-11.32,41-81.75,4.08-224.28.32-.83.66-1.69,1-2.57C309.21,78.71,438,176.58,386.49,266.82Z"/><path class="cls-8" d="M308.2,81.28c36.93,142.53,2.32,213-4.08,224.28A51.51,51.51,0,0,1,297,303.1s-36.08-8.16-50.41-50.27c16.71-16.64,37.47-48.4,24.19-96.52A50.21,50.21,0,0,0,295,155.15s17.88-9.13-7.25-11.76a67.87,67.87,0,0,1-12.65-2.62c1.67-1.94,3.33-3.79,4.95-5.52C300.49,113.32,298.9,105.39,308.2,81.28Z"/><path class="cls-1" d="M131.8,2.5l13.5,34.94c36.84,80.87,23.55,40.49,75.81,203.79q4.09,12.84,7.89,25.6"/><path class="cls-1" d="M212.3,371C163.5,321.23,87.54,266.09,57.85,245.18A232.24,232.24,0,0,0,33.14,230L4.36,214.67"/><path class="cls-1" d="M309.57,80.15c36.93,142.53.95,214.09-5.45,225.41"/></g></g></svg>