<svg xmlns="http://www.w3.org/2000/svg" xmlns:xlink="http://www.w3.org/1999/xlink" viewBox="0 0 829.769 654.466">
  <defs>
    <style>
      .cls-1, .cls-5 {
        fill: #6ddabe;
      }

      .cls-1 {
        opacity: 0.4;
      }

      .cls-2 {
        clip-path: url(#clip-path);
      }

      .cls-3 {
        opacity: 0.7;
        fill: url(#linear-gradient);
      }

      .cls-4 {
        opacity: 0.1;
      }

      .cls-6 {
        fill: #40a1ce;
      }

      .cls-7 {
        fill: #6fb5a1;
      }

      .cls-8 {
        fill: #013252;
      }

      .cls-9 {
        fill: #c4975b;
      }

      .cls-10 {
        fill: #efefef;
      }

      .cls-11 {
        fill: #23406b;
      }

      .cls-12 {
        fill: #c19d5f;
      }

      .cls-13 {
        fill: #32608a;
      }

      .cls-14 {
        fill: none;
        stroke: #6ddabe;
      }

      .cls-14, .cls-16 {
        stroke-linecap: round;
        stroke-linejoin: round;
        stroke-miterlimit: 10;
        stroke-width: 5px;
      }

      .cls-15 {
        fill: url(#linear-gradient-2);
      }

      .cls-16 {
        fill: #003d57;
        stroke: #fff;
      }

      .cls-17 {
        fill: url(#linear-gradient-3);
      }

      .cls-18 {
        fill: url(#linear-gradient-4);
      }

      .cls-19 {
        fill: url(#linear-gradient-5);
      }

      .cls-20 {
        fill: url(#linear-gradient-6);
      }

      .cls-21 {
        fill: url(#linear-gradient-7);
      }

      .cls-22 {
        clip-path: url(#clip-path-2);
      }

      .cls-23 {
        fill: #00a983;
      }

      .cls-24 {
        opacity: 0.15;
      }

      .cls-25, .cls-27 {
        fill: #fee9d7;
      }

      .cls-26 {
        fill: url(#linear-gradient-8);
      }

      .cls-27, .cls-28, .cls-32 {
        opacity: 0.05;
      }

      .cls-29 {
        fill: #fff;
      }

      .cls-30 {
        fill: #ddd;
      }

      .cls-31 {
        fill: #bfbfbf;
      }
    </style>
    <clipPath id="clip-path">
      <rect id="Rectangle_86" data-name="Rectangle 86" width="395.406" height="654.466"/>
    </clipPath>
    <linearGradient id="linear-gradient" y1="0.5" x2="1" y2="0.5" gradientUnits="objectBoundingBox">
      <stop offset="0" stop-color="#00455b"/>
      <stop offset="0.999" stop-color="#02264b"/>
    </linearGradient>
    <linearGradient id="linear-gradient-2" x1="-0.287" y1="1.721" x2="1.363" y2="3.44" xlink:href="#linear-gradient"/>
    <linearGradient id="linear-gradient-3" x1="-0.276" y1="1.543" x2="2.122" y2="2.841" xlink:href="#linear-gradient"/>
    <linearGradient id="linear-gradient-4" x1="-0.081" y1="1.555" x2="2.531" y2="2.847" xlink:href="#linear-gradient"/>
    <linearGradient id="linear-gradient-5" x1="-0.107" y1="1.948" x2="1.504" y2="4.108" xlink:href="#linear-gradient"/>
    <linearGradient id="linear-gradient-6" x1="-2.382" y1="1.503" x2="1.28" y2="3.011" xlink:href="#linear-gradient"/>
    <linearGradient id="linear-gradient-7" x1="-2.151" y1="1.531" x2="2.265" y2="3.073" xlink:href="#linear-gradient"/>
    <clipPath id="clip-path-2">
      <path id="Tracé_151" data-name="Tracé 151" d="M0,0S210.364,19.478,151.93,260.033s66.226,377.876,220.1,334.05S771.335,560,829.769,654.466V0Z"/>
    </clipPath>
    <linearGradient id="linear-gradient-8" x1="0.411" y1="0.293" x2="0.729" y2="1.15" xlink:href="#linear-gradient"/>
  </defs>
  <g id="illustration" transform="translate(0)">
    <path id="Tracé_125" data-name="Tracé 125" class="cls-1" d="M0,0S210.364,19.478,151.93,260.033s66.226,377.876,220.1,334.05S771.335,560,829.769,654.466V0Z"/>
    <path id="Tracé_126" data-name="Tracé 126" class="cls-1" d="M0,0S210.364,19.478,151.93,260.033s66.226,377.876,220.1,334.05S771.335,560,829.769,654.466V0Z"/>
    <g id="Groupe_259" data-name="Groupe 259" transform="translate(434.363)">
      <g id="Groupe_258" data-name="Groupe 258" class="cls-2">
        <path id="Tracé_127" data-name="Tracé 127" class="cls-3" d="M879.4,590.772c-4.188,1.071-8.278,2.143-12.369,3.311-153.877,43.826-278.538-93.5-220.1-334.05S495,0,495,0H710.234s200.625,19.478,142.19,260.033C810.059,434.363,787.951,554.543,879.4,590.772Z" transform="translate(-388.844 0)"/>
      </g>
    </g>
    <g id="Groupe_260" data-name="Groupe 260" transform="translate(276.575 48.89)">
      <path id="Tracé_128" data-name="Tracé 128" class="cls-4" d="M293.933,167l-9.057,21.621h0a2.709,2.709,0,0,0-.876,2.337,2.225,2.225,0,0,0,2.143,2.143H548.61a2.224,2.224,0,0,0,1.948-2.435h0L562.342,167v-.1l-268.409.1Z" transform="translate(-283.985 -53.245)"/>
      <path id="Tracé_129" data-name="Tracé 129" class="cls-5" d="M562.723,166.631H295a3.907,3.907,0,0,1-3.9-3.9V160.5a3.907,3.907,0,0,1,3.9-3.9H562.723a3.907,3.907,0,0,1,3.9,3.9v2.24A3.907,3.907,0,0,1,562.723,166.631Z" transform="translate(-284.17 -52.976)"/>
      <path id="Tracé_130" data-name="Tracé 130" class="cls-5" d="M344.969,210.628h-8.376L328.9,166.9h23.763Z" transform="translate(-285.157 -53.245)"/>
      <path id="Tracé_131" data-name="Tracé 131" class="cls-5" d="M510.567,210.628h-8.473L494.4,166.9h23.763Z" transform="translate(-289.475 -53.245)"/>
      <rect id="Rectangle_87" data-name="Rectangle 87" class="cls-6" width="12.466" height="94.956" transform="translate(130.032 8.668)"/>
      <rect id="Rectangle_88" data-name="Rectangle 88" class="cls-7" width="12.466" height="94.956" transform="translate(233.753 8.668)"/>
      <rect id="Rectangle_89" data-name="Rectangle 89" class="cls-8" width="14.998" height="82.49" transform="translate(158.762 21.231)"/>
      <rect id="Rectangle_90" data-name="Rectangle 90" class="cls-9" width="14.998" height="82.49" transform="translate(218.755 21.231)"/>
      <rect id="Rectangle_91" data-name="Rectangle 91" class="cls-6" width="7.499" height="92.521" transform="translate(173.76 11.2)"/>
      <rect id="Rectangle_92" data-name="Rectangle 92" class="cls-7" width="12.466" height="76.257" transform="translate(181.259 27.464)"/>
      <rect id="Rectangle_93" data-name="Rectangle 93" class="cls-10" width="12.466" height="76.257" transform="translate(206.191 27.464)"/>
      <rect id="Rectangle_94" data-name="Rectangle 94" class="cls-11" width="12.466" height="102.455" transform="translate(193.725 1.169)"/>
      <rect id="Rectangle_95" data-name="Rectangle 95" class="cls-12" width="16.264" height="103.721" transform="translate(142.498)"/>
      <path id="Tracé_132" data-name="Tracé 132" class="cls-7" d="M392.515,155.662h-29.7L352,116.9h51.228Z" transform="translate(-285.759 -51.94)"/>
      <path id="Tracé_133" data-name="Tracé 133" class="cls-4" d="M404.143,116.9,393.43,155.662H387.1L397.91,116.9Z" transform="translate(-286.675 -51.94)"/>
      <path id="Tracé_134" data-name="Tracé 134" class="cls-13" d="M374.624,116.261s-12.174-22.5-3.409-23.763c0,0,6.233-2.532,6.233,18.7,0,0-1.266-13.732,3.7-13.732,0,0,2.532-1.266,1.266,13.732,0,0,8.765-12.466,11.2-8.765s-7.889,13.732-7.889,13.732h-11.1Z" transform="translate(-286.178 -51.301)"/>
      <path id="Tracé_135" data-name="Tracé 135" class="cls-13" d="M381.212,96.872s-16.264-17.53-8.765-21.231,8.765,15,8.765,15,1.266-26.2,11.2-19.965C402.443,76.907,381.212,96.872,381.212,96.872Z" transform="translate(-286.241 -50.709)"/>
      <path id="Tracé_136" data-name="Tracé 136" class="cls-13" d="M380.081,75.3s-10.031-19.965,0-18.7S383.879,74.031,380.081,75.3Z" transform="translate(-286.376 -50.365)"/>
      <rect id="Rectangle_96" data-name="Rectangle 96" class="cls-4" width="2.532" height="94.956" transform="translate(139.965 8.668)"/>
      <rect id="Rectangle_97" data-name="Rectangle 97" class="cls-4" width="2.532" height="92.521" transform="translate(178.727 11.2)"/>
      <rect id="Rectangle_98" data-name="Rectangle 98" class="cls-4" width="2.532" height="103.721" transform="translate(156.23)"/>
      <rect id="Rectangle_99" data-name="Rectangle 99" class="cls-4" width="2.532" height="76.257" transform="translate(216.222 27.464)"/>
      <rect id="Rectangle_100" data-name="Rectangle 100" class="cls-4" width="2.532" height="82.49" transform="translate(231.221 21.231)"/>
    </g>
    <g id="Groupe_261" data-name="Groupe 261" transform="translate(114.337 101.286)">
      <path id="Tracé_137" data-name="Tracé 137" class="cls-14" d="M318.6,465.477s5.162-57.266,13.83-141.509c0,0,.195-.39.682-1.169" transform="translate(-122.65 -109.709)"/>
      <path id="Tracé_138" data-name="Tracé 138" class="cls-15" d="M263.878,366.762s-19.186,40.807-76.354,28.438c-30.873-6.623-48.793-46.358-58.824-81.516,8.96,3.214,19.77,4.87,31.262,1.071,0,0,14.8-7.6-5.454-8.668-11.395-.584-22.5-5.259-30.094-9.155A360.013,360.013,0,0,1,117.5,257.1h.1l21.231,11.3a174.226,174.226,0,0,1,17.238,10.616C176.714,293.524,229.792,332.091,263.878,366.762Z" transform="translate(-117.403 -107.995)"/>
      <path id="Tracé_139" data-name="Tracé 139" class="cls-16" d="M117.5,257.1h-.1V257Z" transform="translate(-117.4 -107.992)"/>
      <path id="Tracé_140" data-name="Tracé 140" class="cls-17" d="M302.113,199.151c1.266,2.922,2.435,5.843,3.311,8.57.584,1.753,1.169,3.506,1.656,5.259,9.252,33.6-5.259,55.708-16.849,67.394a61.563,61.563,0,0,1-12.271,9.739q-2.63-8.911-5.551-17.822C235.888,158.344,245.237,186.49,219.526,130L209.3,104c10.713,4.577,22.5,13.148,33.405,22.692h0c3.9,7.11,8.473,17.628,9.252,28.535,1.363,19.283,8.278,4.967,8.278,4.967a42.54,42.54,0,0,0,1.753-15.29c13.732,13.927,23.374,25.711,23.374,25.711A152.978,152.978,0,0,1,302.113,199.151Z" transform="translate(-119.798 -104)"/>
      <path id="Tracé_141" data-name="Tracé 141" class="cls-18" d="M208.66,104l10.129,26c25.711,56.487,16.459,28.243,52.883,142.288,1.948,5.941,3.7,11.979,5.551,17.822a109.245,109.245,0,0,1-22.4.487c-20.063-1.558-48.4-9.155-62.038-37.593-6.33-13.05-9.544-30.581-7.3-53.954l10.323-44.8C195.9,154.156,209.634,115.979,208.66,104Z" transform="translate(-119.158 -104)"/>
      <path id="Tracé_142" data-name="Tracé 142" class="cls-14" d="M267.8,367.754c11.492,11.687,20.842,22.984,26,32.723,24.835,46.553,18.7,71.193,18.7,71.193s3.7-52.007-1.85-65.739c-7.11-17.628-16.849-62.72-31.165-110.831" transform="translate(-121.324 -108.986)"/>
      <path id="Tracé_143" data-name="Tracé 143" class="cls-19" d="M263.881,366.7c-34.087-34.671-87.067-73.238-107.812-87.749a174.226,174.226,0,0,0-17.238-10.616l-21.231-11.3c22.5-1.753,40.612-2.143,52.3-2.143a119.828,119.828,0,0,1,21.329,1.948c13.635,28.438,41.975,36.035,62.038,37.593C277.126,328.04,263.881,366.7,263.881,366.7Z" transform="translate(-117.405 -107.937)"/>
      <path id="Tracé_144" data-name="Tracé 144" class="cls-16" d="M344.9,199.4" transform="translate(-123.336 -106.489)"/>
      <path id="Tracé_145" data-name="Tracé 145" class="cls-20" d="M391.061,291.585C371.972,324.99,344.7,321.679,333.6,318.66c4.48-7.889,28.633-57.071,2.824-156.507.195-.584.487-1.169.682-1.753C337.106,160.205,427,228.574,391.061,291.585Z" transform="translate(-123.041 -105.472)"/>
      <path id="Tracé_146" data-name="Tracé 146" class="cls-21" d="M335.349,162.1c25.809,99.533,1.656,148.618-2.824,156.507a34.66,34.66,0,0,1-4.967-1.753s-25.224-5.649-35.158-35.061C304.087,270.2,318.6,248,309.249,214.4a35.986,35.986,0,0,0,16.946-.779s12.466-6.33-5.064-8.181a46.272,46.272,0,0,1-8.863-1.85c1.169-1.363,2.337-2.63,3.409-3.9C329.993,184.5,328.824,178.949,335.349,162.1Z" transform="translate(-121.966 -105.516)"/>
      <path id="Tracé_147" data-name="Tracé 147" class="cls-14" d="M210.1,105.6l9.447,24.348c25.711,56.487,16.459,28.243,52.883,142.288,1.948,5.941,3.7,11.979,5.551,17.823" transform="translate(-119.819 -104.042)"/>
      <path id="Tracé_148" data-name="Tracé 148" class="cls-14" d="M263.912,366.778c-34.087-34.671-87.067-73.238-107.812-87.749a174.232,174.232,0,0,0-17.238-10.616L118.8,257.7" transform="translate(-117.437 -108.01)"/>
      <path id="Tracé_149" data-name="Tracé 149" class="cls-14" d="M337.4,161.3c25.809,99.533.682,149.4-3.8,157.286" transform="translate(-123.041 -105.495)"/>
    </g>
    <g id="Groupe_263" data-name="Groupe 263">
      <g id="Groupe_262" data-name="Groupe 262" class="cls-22">
        <path id="Tracé_150" data-name="Tracé 150" class="cls-23" d="M834.805,668.947H306.947A113.969,113.969,0,0,1,193,555H834.805Z" transform="translate(-5.036 -14.481)"/>
      </g>
    </g>
    <g id="Groupe_268" data-name="Groupe 268" transform="translate(154.851 170.381)">
      <path id="Tracé_152" data-name="Tracé 152" class="cls-24" d="M770.655,553.767,758.481,492.8,750.3,553.767Z" transform="translate(-174.429 -183.239)"/>
      <path id="Tracé_153" data-name="Tracé 153" class="cls-25" d="M759.608,339.185a70.043,70.043,0,0,0-4.383,12.174c-8.376,30.776-8.278,82.977-8.278,82.977l-40.612.1L704,384.082a40.226,40.226,0,0,1-19.186,5.259c-28.536.1-51.714-32.334-51.812-72.361a102.134,102.134,0,0,1,3.506-26.685s38.761,17.238,79.373-.195c0,0,4.09,12.174,4.09,18.5,0,0,20.939,4.577,7.6,23.179a30.648,30.648,0,0,0,1.558,3.6l5.259.682Z" transform="translate(-171.368 -177.95)"/>
      <path id="Tracé_154" data-name="Tracé 154" class="cls-25" d="M703.464,387.8a8.906,8.906,0,0,0-1.364.682h0c.1,0,.195-.1.292-.1a2.916,2.916,0,0,0,.779-.39C703.269,387.9,703.366,387.8,703.464,387.8Z" transform="translate(-173.171 -180.5)"/>
      <path id="Tracé_155" data-name="Tracé 155" class="cls-25" d="M734.822,344.9c-2.532,21.134-11.979,38.956-25.419,48.4-.39.195-.682.487-1.071.682l-.877.584a2.037,2.037,0,0,0-.584.39c-.195.1-.39.292-.584.39l-.487-9.934h0c13.148-7.4,23.666-22.108,28.828-40.612Z" transform="translate(-173.267 -179.378)"/>
      <path id="Tracé_156" data-name="Tracé 156" class="cls-26" d="M747.337,336.278l-3.019,3.019a11.062,11.062,0,0,1-13.732,1.558l-13.537-8.473a30.624,30.624,0,0,1-1.558-3.6c13.342-18.6-7.5-23.179-7.5-23.179,0-6.33-4.09-18.6-4.09-18.6-40.612,17.433-79.373,0-79.373,0a98.151,98.151,0,0,0-3.6,26.685c0,40.028,23.082,72.459,51.617,72.459a39.057,39.057,0,0,0,19.186-5.162l2.24,50.351C635.241,447.108,593.46,545.083,593.46,545.083H363.618c18.6-23.179,59.8-45.774,59.8-45.774-33.7-.584-86.483,45.774-86.483,45.774H192.113c-1.948-1.948-10.518-14.024-12.661-17.53C164.843,504.179,159,487.623,159,487.623c1.071-16.654,11.3-28.438,21.913-41.391,43.144-52.786,55.415-49.864,125.439-74.5,75.478-26.685,146.184-48.111,155.63-55.513,8.083-6.33,59.6-40.222,85.8-76.744C587.13,184.445,693.773,138.769,741.4,215.9,785.028,286.706,747.337,336.278,747.337,336.278Z" transform="translate(-159 -174.946)"/>
      <path id="Tracé_157" data-name="Tracé 157" class="cls-25" d="M747.954,438.3s-13.343,88.723-56.292,83.464c-44.41-5.357,15.68-83.464,15.68-83.464Z" transform="translate(-172.472 -181.817)"/>
      <path id="Tracé_158" data-name="Tracé 158" class="cls-27" d="M747.954,438.3s-13.343,88.723-56.292,83.464c-44.41-5.357,15.68-83.464,15.68-83.464Z" transform="translate(-172.472 -181.817)"/>
      <path id="Tracé_159" data-name="Tracé 159" class="cls-5" d="M834.358,551.955H605.1S646.881,453.98,705.51,438.3c0,0-60.09,78.107-15.68,83.464,42.949,5.259,56.292-83.464,56.292-83.464S826.274,455.636,834.358,551.955Z" transform="translate(-170.64 -181.817)"/>
      <path id="Tracé_160" data-name="Tracé 160" class="cls-4" d="M839.334,552.589H833.49c-3.506-43.436-19.868-71.777-37.69-89.989C815.765,479.449,835.535,507.2,839.334,552.589Z" transform="translate(-175.616 -182.451)"/>
      <ellipse id="Ellipse_18" data-name="Ellipse 18" class="cls-5" cx="11.979" cy="24.348" rx="11.979" ry="24.348" transform="translate(452.77 116.824)"/>
      <path id="Tracé_161" data-name="Tracé 161" class="cls-25" d="M734.1,338.406c-4.675,20.842-15.777,37.593-30.094,45.676l-1.169.584c-.292.195-.584.292-.877.487l-.584.292a2.916,2.916,0,0,0-.779.39,5.958,5.958,0,0,1-1.169.487,11.424,11.424,0,0,0-1.071.487c-.39.195-.779.292-1.266.487-.39.1-.779.292-1.169.39h-.1l-.877.292c-.1,0-.292.1-.39.1a2.844,2.844,0,0,1-.876.195,4.143,4.143,0,0,1-1.071.195c-.1,0-.292.1-.39.1h-.1c-.292.1-.584.1-.876.195s-.682.1-.974.195c-.195,0-.39.1-.584.1h0c-.292,0-.584.1-.877.1-.39,0-.876.1-1.266.1s-.876.1-1.266.1h-1.266c-27.659,0-50.254-30.581-51.617-68.953,0-1.169-.1-2.337-.1-3.506v-3.7c0-1.169.1-2.24.195-3.311a3.994,3.994,0,0,1,.1-1.071,2.144,2.144,0,0,1,.1-.779c0-.39.1-.779.1-1.169,0-.487.1-.876.1-1.266s.1-.779.1-1.169c0-.292.1-.487.1-.779,0-.39.1-.682.1-1.071,0-.195.1-.487.1-.682a3.46,3.46,0,0,1,.195-.974c0-.292.1-.487.1-.779a6765.28,6765.28,0,0,0,.39-1.753l.292-1.461c.1-.487.195-1.071.292-1.558v-.195a9.1,9.1,0,0,1,.39-1.558l.876-3.506s1.266.584,3.506,1.363c10.421,3.7,42.56,12.856,75.867-1.363,0,0,4.09,12.174,4.09,18.6a22.414,22.414,0,0,1,6.623,2.922c.1,1.656.1,3.311.1,5.064a3.8,3.8,0,0,0,3.8,3.8,3.909,3.909,0,0,0,1.461-.292c.195,3.117-.974,7.012-4.48,11.784a30.629,30.629,0,0,0,1.558,3.6Z" transform="translate(-171.376 -177.95)"/>
      <path id="Tracé_162" data-name="Tracé 162" class="cls-25" d="M734.656,320.57a3.908,3.908,0,0,1-1.461.292,3.8,3.8,0,0,1-3.8-3.8c0-1.656,0-3.409-.1-5.064C731.93,313.85,734.462,316.577,734.656,320.57Z" transform="translate(-173.881 -178.522)"/>
      <path id="Tracé_163" data-name="Tracé 163" class="cls-25" d="M731.523,313.893a19.738,19.738,0,0,0-6.233-1.85,20.143,20.143,0,0,0-.39-2.143A17.95,17.95,0,0,1,731.523,313.893Z" transform="translate(-173.766 -178.467)"/>
      <path id="Tracé_164" data-name="Tracé 164" class="cls-25" d="M722.43,308.727c0-3.8-1.461-9.836-2.63-13.927,1.169,2.727,3.993,9.544,5.064,14.609A22.514,22.514,0,0,0,722.43,308.727Z" transform="translate(-173.633 -178.073)"/>
      <path id="Tracé_165" data-name="Tracé 165" class="cls-4" d="M703.171,387.9c.1,0,.195-.1.292-.1a8.906,8.906,0,0,0-1.364.682h0c.1,0,.195-.1.292-.1C702.684,388.19,702.879,388.092,703.171,387.9Z" transform="translate(-173.171 -180.5)"/>
      <path id="Tracé_166" data-name="Tracé 166" class="cls-4" d="M734.728,346.1C732,366.747,722.651,384.082,709.5,393.335c-.39.195-.682.487-1.071.682l-.877.584a2.037,2.037,0,0,0-.584.39c-.195.1-.39.292-.584.39l-.487-9.934h0a29.518,29.518,0,0,0,3.7-2.337c.292-.195.487-.39.779-.584.39-.292.682-.487,1.071-.779.292-.195.487-.39.779-.584a1.342,1.342,0,0,1,.39-.292,6.309,6.309,0,0,0,.877-.779c.1-.1.292-.195.39-.292a4.88,4.88,0,0,0,.779-.682c.292-.292.584-.487.877-.779l.877-.876a62.124,62.124,0,0,0,6.525-7.6,5.917,5.917,0,0,0,.682-.974c.1-.1.1-.195.195-.292.195-.292.487-.682.682-.974a3.419,3.419,0,0,0,.487-.779.972.972,0,0,1,.39-.487,8.559,8.559,0,0,0,.584-.974c.195-.39.487-.779.682-1.169.292-.487.487-.876.779-1.363,0-.1.1-.1.1-.195a7.265,7.265,0,0,1,.682-1.169,18.159,18.159,0,0,0,.974-1.948c.195-.39.39-.877.584-1.266.584-1.169,1.071-2.337,1.656-3.6a10.824,10.824,0,0,1,.682-1.558c.195-.584.39-1.071.584-1.656s.39-1.071.584-1.656.39-1.071.584-1.656a11.773,11.773,0,0,0,.487-1.753c0-.1.1-.195.1-.292C734.435,346.2,734.63,346.2,734.728,346.1Z" transform="translate(-173.27 -179.411)"/>
      <path id="Tracé_167" data-name="Tracé 167" class="cls-4" d="M735.1,346.3c0,.1-.1.195-.1.292a.358.358,0,0,1,.1-.292Z" transform="translate(-174.029 -179.417)"/>
      <path id="Tracé_168" data-name="Tracé 168" class="cls-28" d="M733.827,346.29c0,.1-.1.195-.1.292a11.756,11.756,0,0,0-.487,1.753,11.217,11.217,0,0,1-.584,1.656c-.195.584-.39,1.071-.584,1.656s-.39,1.071-.584,1.656a7.54,7.54,0,0,1-.682,1.558c-.487,1.266-1.071,2.435-1.656,3.6-.195.39-.39.876-.584,1.266-.292.682-.682,1.266-.974,1.948a7.27,7.27,0,0,1-.682,1.169c0,.1-.1.1-.1.195-.292.487-.487.877-.779,1.363-.195.39-.487.779-.682,1.169-.195.292-.39.682-.584.974a.972.972,0,0,1-.39.487c-.195.292-.292.487-.487.779a5.917,5.917,0,0,1-.682.974c0,.1-.1.195-.195.292-.195.292-.487.682-.682.974a55.58,55.58,0,0,1-6.525,7.6l-.877.877a6.3,6.3,0,0,1-.877.779c-.292.195-.487.487-.779.682-.1.1-.292.195-.39.292-.292.292-.584.487-.877.779a1.345,1.345,0,0,1-.39.292c-.292.195-.487.39-.779.584a10.205,10.205,0,0,1-1.071.779c-.292.195-.487.39-.779.584a29.518,29.518,0,0,1-3.7,2.337l-1.169.584c-.292.195-.584.292-.877.487l-.584.292a2.917,2.917,0,0,0-.779.39,5.956,5.956,0,0,1-1.169.487,11.419,11.419,0,0,0-1.071.487c-.39.195-.779.292-1.266.487-.39.1-.779.292-1.169.39h-.1l-.877.292c-.1,0-.292.1-.39.1a2.844,2.844,0,0,1-.877.195,4.141,4.141,0,0,1-1.071.195c-.1,0-.292.1-.39.1h-.1c-.292.1-.584.1-.877.195s-.682.1-.974.195c-.195,0-.39.1-.584.1h0c-.292,0-.584.1-.877.1-.39,0-.877.1-1.266.1s-.877.1-1.266.1H686.3a97.8,97.8,0,0,0,32.236-29.607,67.439,67.439,0,0,0,10.226-14.511,3.466,3.466,0,0,0,.39-.876,6.628,6.628,0,0,0,3.019.779A8.248,8.248,0,0,1,733.827,346.29Z" transform="translate(-172.759 -179.406)"/>
      <path id="Tracé_169" data-name="Tracé 169" class="cls-28" d="M735.1,346.3c0,.1-.1.195-.1.292a.358.358,0,0,1,.1-.292Z" transform="translate(-174.029 -179.417)"/>
      <ellipse id="Ellipse_19" data-name="Ellipse 19" class="cls-5" cx="11.979" cy="24.348" rx="11.979" ry="24.348" transform="translate(545.096 116.824)"/>
      <path id="Tracé_170" data-name="Tracé 170" class="cls-4" d="M745.3,320.858c0,11.979-4.285,22.01-9.934,24.055a.585.585,0,0,1-.39.1h0a4.824,4.824,0,0,1-1.656.195,6.628,6.628,0,0,1-3.019-.779,2.441,2.441,0,0,1,.39-.682h1.071c.195,0,.39-.1.584-.1.1,0,.195,0,.195-.1a6.7,6.7,0,0,0,.779-.292c.1,0,.195-.1.292-.1s.195-.1.292-.1.195-.1.292-.195.292-.195.39-.292c.195-.1.292-.195.487-.292.1-.1.195-.1.292-.195s.195-.195.292-.195l.292-.292,1.169-1.169c.1-.1.195-.292.39-.487.1-.195.292-.292.39-.487a2.127,2.127,0,0,0,.292-.487c.195-.39.487-.682.682-1.071l.292-.584q.73-1.461,1.461-3.214c.1-.195.1-.292.195-.487s.195-.487.292-.682a6.237,6.237,0,0,0,.195-.682c0-.1.1-.195.1-.292.1-.195.1-.39.195-.584a9.122,9.122,0,0,0,.39-1.558,3.462,3.462,0,0,0,.195-.974v-.1a5.031,5.031,0,0,0,.195-1.071c.1-.39.1-.779.195-1.169a3.314,3.314,0,0,0,.1-.974v-.195c0-.292.1-.682.1-.974a1.236,1.236,0,0,1,.1-.584,8.376,8.376,0,0,0,.1-1.558v-5.649a3.312,3.312,0,0,0-.1-.974,2.7,2.7,0,0,0-.1-.877c0-.292-.1-.584-.1-.877s-.1-.584-.1-.876a49.35,49.35,0,0,0-1.169-5.941c-.1-.195-.1-.39-.195-.487-.195-.487-.292-.974-.487-1.461a1.805,1.805,0,0,1-.195-.682c-.195-.487-.39-.876-.584-1.363l-.292-.584a.1.1,0,0,0-.1-.1l-.292-.584c-.1-.292-.292-.487-.39-.779a.738.738,0,0,1-.195-.39c-.1-.195-.292-.487-.39-.682-.1-.1-.195-.292-.292-.39a1.707,1.707,0,0,0-.39-.487h0a1.71,1.71,0,0,0-.39-.487,14.98,14.98,0,0,0-1.169-1.266c-.1-.1-.292-.195-.39-.39C741.208,299.432,745.3,309.171,745.3,320.858Z" transform="translate(-173.907 -178.128)"/>
      <path id="Tracé_171" data-name="Tracé 171" class="cls-4" d="M728.787,344.595a.1.1,0,0,1-.1.1c-.1-.1-.292-.195-.39-.292A.744.744,0,0,1,728.787,344.595Z" transform="translate(-173.854 -179.367)"/>
      <g id="Groupe_264" data-name="Groupe 264" transform="translate(457.931 66.279)">
        <path id="Tracé_172" data-name="Tracé 172" class="cls-29" d="M734.382,315.264a3.848,3.848,0,0,1-2.337,3.506c-.195-3.993-2.727-6.72-5.357-8.473-1.363-24.64-12.271-45.482-27.464-54.734-6.233-4.967-13.343-7.791-20.842-7.791-18.407,0-34.282,16.946-41.391,41.2l-.39-.195-.877,3.506a12.107,12.107,0,0,1-.389,1.558v.195c-.1.487-.195,1.071-.292,1.558l-.292,1.461c-.1.292-.1.584-.195.876s-.1.584-.195.876c0,.195-.1.487-.1.779-.1.292-.1.682-.195.974,0,.195-.1.487-.1.682a4,4,0,0,0-.1,1.071c0,.292-.1.487-.1.779,0,.39-.1.779-.1,1.169a5.555,5.555,0,0,0-.1,1.266c0,.39-.1.779-.1,1.169a2.144,2.144,0,0,1-.1.779c0,.39-.1.682-.1,1.071-.1,1.071-.1,2.24-.195,3.311v3.7c0,1.169,0,2.337.1,3.506H633a3.8,3.8,0,0,1-3.8-3.8c0-19.089,5.356-37.106,15-50.643C654.132,250.694,667.475,243,681.791,243s27.659,7.694,37.593,21.621C729.026,278.255,734.382,296.175,734.382,315.264Z" transform="translate(-629.2 -243)"/>
        <path id="Tracé_173" data-name="Tracé 173" class="cls-29" d="M734.656,320.57a3.908,3.908,0,0,1-1.461.292,3.8,3.8,0,0,1-3.8-3.8c0-1.656,0-3.409-.1-5.064C731.93,313.85,734.462,316.577,734.656,320.57Z" transform="translate(-631.812 -244.8)"/>
      </g>
      <path id="Tracé_174" data-name="Tracé 174" class="cls-30" d="M781.129,570.7l-5.551,6.136-59.214,65.252H506L619.265,570.7Z" transform="translate(-168.054 -185.272)"/>
      <path id="Tracé_175" data-name="Tracé 175" class="cls-31" d="M781.129,570.7v3.7a6.386,6.386,0,0,1-1.656,4.285L718.312,646.47a6.129,6.129,0,0,1-4.675,2.045H510.285A4.345,4.345,0,0,1,506,644.133V642.38H716.364l59.214-65.544Z" transform="translate(-168.054 -185.272)"/>
      <path id="Tracé_176" data-name="Tracé 176" class="cls-5" d="M769.4,555l-.877,3.8A18.864,18.864,0,0,1,758,571.751l-55.9,21.231,16.459,31.847S835.331,600.774,836.889,555" transform="translate(-173.171 -184.862)"/>
      <path id="Tracé_177" data-name="Tracé 177" class="cls-4" d="M837.215,555c-1.656,45.774-118.33,69.829-118.33,69.829l-4.285-8.278c5.259-1.169,103.137-22.205,116.772-61.551Z" transform="translate(-173.497 -184.862)"/>
      <g id="Groupe_265" data-name="Groupe 265" transform="translate(334.537 313.749)">
        <path id="Tracé_178" data-name="Tracé 178" class="cls-10" d="M701.664,497.1H515.356A12.843,12.843,0,0,0,502.5,509.956V633.739a12.843,12.843,0,0,0,12.856,12.856H701.664a12.843,12.843,0,0,0,12.856-12.856V509.956A12.969,12.969,0,0,0,701.664,497.1Z" transform="translate(-502.5 -497.1)"/>
        <ellipse id="Ellipse_20" data-name="Ellipse 20" class="cls-29" cx="6.623" cy="10.129" rx="6.623" ry="10.129" transform="translate(99.436 64.083)"/>
      </g>
      <g id="Groupe_266" data-name="Groupe 266" transform="translate(504.454 136.1)">
        <path id="Tracé_179" data-name="Tracé 179" class="cls-29" d="M679.239,377.809a2.292,2.292,0,0,1-2.24-1.85,2.242,2.242,0,0,1,1.85-2.63c19.478-3.311,34.087-13.829,43.242-31.262a73.312,73.312,0,0,0,7.986-25.322,2.248,2.248,0,1,1,4.48.39,76.64,76.64,0,0,1-8.473,27.075c-6.817,12.856-20.355,29.217-46.455,33.6Z" transform="translate(-676.97 -314.692)"/>
      </g>
      <g id="Groupe_267" data-name="Groupe 267" class="cls-32" transform="translate(506.919 164.741)">
        <path id="Tracé_180" data-name="Tracé 180" d="M729.267,344.879a2.436,2.436,0,0,1-.39.682c-.1.292-.292.584-.39.876a65.139,65.139,0,0,1-10.226,14.511c-7.986,8.57-19.478,16.264-36.229,19.089h-.39a2.191,2.191,0,0,1-2.143-1.558h.292c26.1-4.383,39.735-20.744,46.455-33.6a5.783,5.783,0,0,1,.39-.779,3.458,3.458,0,0,0,.877.39h.1a.878.878,0,0,0,.487.1c.1,0,.292.1.39.1h.195c.195,0,.292.1.487.1C729.072,344.879,729.169,344.879,729.267,344.879Z" transform="translate(-679.5 -344.1)"/>
      </g>
    </g>
  </g>
</svg>
