<svg xmlns="http://www.w3.org/2000/svg" xmlns:xlink="http://www.w3.org/1999/xlink" viewBox="0 0 1293 641.456">
  <defs>
    <style>
      .cls-1 {
        fill: #00a983;
      }

      .cls-2 {
        opacity: 0.15;
      }

      .cls-3, .cls-5 {
        fill: #fee9d7;
      }

      .cls-4 {
        fill: url(#linear-gradient);
      }

      .cls-13, .cls-5, .cls-8 {
        opacity: 0.05;
      }

      .cls-6 {
        fill: #6ddabe;
      }

      .cls-7 {
        opacity: 0.1;
      }

      .cls-9 {
        fill: #fff;
      }

      .cls-10 {
        fill: #ddd;
      }

      .cls-11 {
        fill: #bfbfbf;
      }

      .cls-12 {
        fill: #efefef;
      }
    </style>
    <linearGradient id="linear-gradient" x1="0.382" y1="0.321" x2="0.718" y2="1.138" gradientUnits="objectBoundingBox">
      <stop offset="0" stop-color="#00455b"/>
      <stop offset="0.999" stop-color="#02264b"/>
    </linearGradient>
  </defs>
  <g id="main" transform="translate(13 -157.044)">
    <g id="Groupe_197" data-name="Groupe 197">
      <rect id="Rectangle_76" data-name="Rectangle 76" class="cls-1" width="1293" height="149.5" transform="translate(-13 649)"/>
      <g id="Groupe_148" data-name="Groupe 148" transform="translate(21 30)">
        <path id="Tracé_91" data-name="Tracé 91" class="cls-2" d="M1129.6,621.6l-16.2-81.2-10.9,81.2Z"/>
        <path id="Tracé_92" data-name="Tracé 92" class="cls-3" d="M1119,342.9a94.394,94.394,0,0,0-5.8,16.2c-11.1,41-11,110.5-11,110.5l-54.1.1-3.2-67.1a51.1,51.1,0,0,1-25.5,6.9c-38,.1-68.9-43.1-69-96.4a135.327,135.327,0,0,1,4.7-35.5s51.7,23,105.7-.3c0,0,5.4,16.2,5.5,24.7,0,0,27.8,6.1,10.1,30.9a45.674,45.674,0,0,0,2.1,4.8l7,.9Z"/>
        <path id="Tracé_93" data-name="Tracé 93" class="cls-3" d="M1041.8,404.2a14.159,14.159,0,0,1-1.8.8h.1a.367.367,0,0,1,.3-.1,4.671,4.671,0,0,0,1-.5C1041.6,404.3,1041.7,404.3,1041.8,404.2Z"/>
        <path id="Tracé_94" data-name="Tracé 94" class="cls-3" d="M1083.5,348.6c-3.4,28.2-15.9,51.9-33.8,64.5-.5.3-.9.6-1.4.9a10.529,10.529,0,0,0-1.1.7,5.577,5.577,0,0,1-.8.5c-.3.2-.5.3-.8.5l-.6-13.2h-.1c17.5-9.8,31.5-29.5,38.4-54.1Z"/>
        <path id="Tracé_95" data-name="Tracé 95" class="cls-4" d="M1119,343.1l-4,4a14.835,14.835,0,0,1-18.3,2.1l-18-11.3a28.925,28.925,0,0,1-2.1-4.8c17.8-24.7-10-30.9-10-30.9,0-8.5-5.4-24.7-5.4-24.7-54.1,23.2-105.7,0-105.7,0a130.7,130.7,0,0,0-4.8,35.5c0,53.3,30.8,96.5,68.8,96.5a51.464,51.464,0,0,0,25.6-6.9l3,67.1C969.9,490.5,914.3,621,914.3,621h-306c24.7-30.9,79.6-61,79.6-61-44.8-.8-115.1,61-115.1,61H404.5c.3-2.9.7-6.9,1.3-12.4,2-17.8,12.1-43,21.2-62.9a260.272,260.272,0,0,1,35.1-56.3c57.5-70.3,73.8-66.4,167-99.2,100.5-35.5,100.3-47.3,112.8-57.1,10.8-8.5,76.5-70.3,111.3-118.9,52.5-73.3,181.6-135.9,245-33.2C1156.3,275.2,1119,343.1,1119,343.1Z"/>
        <path id="Tracé_96" data-name="Tracé 96" class="cls-3" d="M1102,469.7s-17.8,118.1-75,111.2c-59.2-7.2,20.9-111.2,20.9-111.2Z"/>
        <path id="Tracé_97" data-name="Tracé 97" class="cls-5" d="M1102,469.7s-17.8,118.1-75,111.2c-59.2-7.2,20.9-111.2,20.9-111.2Z"/>
        <path id="Tracé_98" data-name="Tracé 98" class="cls-6" d="M1219.5,621H914.3S969.9,490.5,1048,469.7c0,0-80.1,104-20.9,111.2,57.2,6.9,75-111.2,75-111.2S1208.7,492.8,1219.5,621Z"/>
        <ellipse id="Ellipse_10" data-name="Ellipse 10" class="cls-6" cx="16" cy="32.5" rx="16" ry="32.5" transform="translate(938.5 283.7)"/>
        <path id="Tracé_99" data-name="Tracé 99" class="cls-3" d="M1085,341.8c-6.2,27.7-21,50.1-40.1,60.8-.5.3-1,.5-1.5.8l-1.2.6c-.3.1-.5.3-.8.4-.3.2-.7.3-1,.5-.5.2-1,.5-1.5.7l-1.5.6c-.5.2-1.1.4-1.7.6-.5.2-1,.3-1.5.5-.1,0-.1,0-.2.1l-1.2.3c-.2.1-.4.1-.6.2l-1.2.3c-.5.1-1,.2-1.4.3-.2,0-.3.1-.5.1h-.2a5.02,5.02,0,0,1-1.2.2c-.4.1-.9.1-1.4.2-.3,0-.6.1-.8.1h0a4.484,4.484,0,0,1-1.1.1,9.7,9.7,0,0,1-1.7.1c-.6,0-1.1.1-1.7.1h-1.7c-36.8,0-66.9-40.7-68.7-91.8,0-1.6-.1-3.1-.1-4.7V308c0-1.5.1-3,.2-4.5,0-.5.1-.9.1-1.4a3.4,3.4,0,0,1,.1-1c0-.5.1-1,.1-1.6.1-.6.1-1.2.2-1.7a7.716,7.716,0,0,1,.2-1.5c0-.3.1-.6.1-1a6.75,6.75,0,0,1,.2-1.4c0-.3.1-.6.1-.9.1-.4.1-.9.2-1.3a3.552,3.552,0,0,1,.2-1c.1-.4.1-.8.2-1.2s.1-.7.2-1.1a12.855,12.855,0,0,1,.4-1.9,15.979,15.979,0,0,1,.5-2.1v-.2c.2-.7.3-1.4.5-2,.4-1.6.8-3.1,1.2-4.7,0,0,1.7.7,4.7,1.8,13.9,5,56.6,17.1,101-1.9,0,0,5.4,16.2,5.4,24.7a27.8,27.8,0,0,1,8.8,3.9c.1,2.2.2,4.4.2,6.7a4.951,4.951,0,0,0,5,5,4.058,4.058,0,0,0,1.9-.4c.2,4.1-1.3,9.3-5.9,15.7,0,0,.7,1.9,2.1,4.8Z"/>
        <path id="Tracé_100" data-name="Tracé 100" class="cls-3" d="M1082.4,317.3a6.456,6.456,0,0,1-1.9.4,4.951,4.951,0,0,1-5-5c0-2.3-.1-4.5-.2-6.7C1078.8,308.4,1082.1,312,1082.4,317.3Z"/>
        <path id="Tracé_101" data-name="Tracé 101" class="cls-3" d="M1078.4,308.5a30.139,30.139,0,0,0-8.3-2.5,17.659,17.659,0,0,0-.5-2.9A25.58,25.58,0,0,1,1078.4,308.5Z"/>
        <path id="Tracé_102" data-name="Tracé 102" class="cls-3" d="M1066.5,302.2c0-5.1-2-13-3.5-18.5,1.6,3.7,5.3,12.7,6.7,19.5A29.4,29.4,0,0,0,1066.5,302.2Z"/>
        <path id="Tracé_103" data-name="Tracé 103" class="cls-7" d="M1041.4,404.4c.1-.1.3-.1.4-.2a14.159,14.159,0,0,1-1.8.8h.1a.367.367,0,0,1,.3-.1C1040.7,404.7,1041.1,404.6,1041.4,404.4Z"/>
        <path id="Tracé_104" data-name="Tracé 104" class="cls-7" d="M1083.3,350.2c-3.6,27.5-16,50.6-33.6,62.9a12.132,12.132,0,0,0-1.4,1,10.529,10.529,0,0,0-1.1.7,5.577,5.577,0,0,1-.8.5c-.3.2-.5.3-.8.5l-.6-13.2h-.1a51.852,51.852,0,0,0,5-3.1c.3-.2.7-.5,1-.7.5-.3.9-.7,1.4-1a7.008,7.008,0,0,0,1-.8c.1-.1.3-.2.5-.4a10.58,10.58,0,0,0,1.2-1c.2-.1.3-.3.5-.4.3-.3.7-.6,1-.9a11.971,11.971,0,0,0,1.2-1.1c.4-.4.8-.7,1.2-1.1a78.069,78.069,0,0,0,8.7-10.1c.3-.4.7-.9,1-1.3.1-.1.2-.2.2-.3.3-.4.6-.9.9-1.3.2-.3.5-.7.7-1,.2-.2.3-.5.5-.7a14.8,14.8,0,0,0,.8-1.3l.9-1.5c.3-.6.7-1.2,1-1.8a.349.349,0,0,1,.1-.2c.3-.5.6-1.1.9-1.6.5-.9.9-1.7,1.3-2.6a8.866,8.866,0,0,0,.8-1.7,41,41,0,0,0,2.1-4.8l.9-2.1a14.275,14.275,0,0,0,.8-2.2c.3-.7.5-1.5.8-2.2s.5-1.5.8-2.2a15.446,15.446,0,0,0,.7-2.3.9.9,0,0,0,.1-.5C1082.9,350.3,1083.1,350.2,1083.3,350.2Z"/>
        <path id="Tracé_105" data-name="Tracé 105" class="cls-7" d="M1082.8,350.4c0,.1-.1.3-.1.4a.6.6,0,0,1,.1-.4Z"/>
        <path id="Tracé_106" data-name="Tracé 106" class="cls-8" d="M1082.8,350.4c0,.2-.1.3-.1.5-.2.8-.5,1.5-.7,2.3a14.264,14.264,0,0,1-.8,2.2c-.3.7-.5,1.5-.8,2.2s-.5,1.5-.8,2.2l-.9,2.1-2.1,4.8c-.3.6-.5,1.1-.8,1.7-.4.9-.9,1.7-1.3,2.6-.3.5-.6,1.1-.9,1.6a.349.349,0,0,1-.1.2c-.3.6-.7,1.2-1,1.8l-.9,1.5c-.3.4-.5.9-.8,1.3-.2.2-.3.5-.5.7a6.072,6.072,0,0,1-.7,1c-.3.4-.6.9-.9,1.3-.1.1-.1.2-.2.3a6.421,6.421,0,0,1-1,1.3,78.069,78.069,0,0,1-8.7,10.1,12,12,0,0,1-1.2,1.1c-.4.4-.8.7-1.2,1.1-.3.3-.7.6-1,.9-.2.1-.3.3-.5.4-.4.3-.8.7-1.2,1a1.756,1.756,0,0,0-.5.4c-.3.3-.7.5-1,.8a7.1,7.1,0,0,1-1.4,1,6.072,6.072,0,0,1-1,.7,51.852,51.852,0,0,1-5,3.1,10.929,10.929,0,0,1-1.5.8l-1.2.6c-.3.1-.5.3-.8.4-.3.2-.7.3-1,.5-.5.2-1,.5-1.5.7l-1.5.6c-.5.2-1.1.4-1.7.6-.5.2-1,.3-1.5.5-.1,0-.1,0-.2.1l-1.2.3c-.2.1-.4.1-.6.2l-1.2.3c-.5.1-1,.2-1.4.3-.2,0-.3.1-.5.1h-.2a5.02,5.02,0,0,1-1.2.2c-.4.1-.9.1-1.4.2a2.485,2.485,0,0,1-.8.1h0a4.484,4.484,0,0,1-1.1.1,9.7,9.7,0,0,1-1.7.1c-.6,0-1.1.1-1.7.1h-1.7a129.942,129.942,0,0,0,42.9-39.4,90.081,90.081,0,0,0,13.7-19.4,10.911,10.911,0,0,1,.6-1.1,8.686,8.686,0,0,0,4.1,1.1A6,6,0,0,0,1082.8,350.4Z"/>
        <path id="Tracé_107" data-name="Tracé 107" class="cls-8" d="M1082.8,350.4c0,.1-.1.3-.1.4a.6.6,0,0,1,.1-.4Z"/>
        <ellipse id="Ellipse_11" data-name="Ellipse 11" class="cls-6" cx="16" cy="32.5" rx="16" ry="32.5" transform="translate(1061.5 283.7)"/>
        <path id="Tracé_108" data-name="Tracé 108" class="cls-7" d="M1096.5,318.2c0,16-5.7,29.3-13.2,32-.2.1-.4.1-.5.2h0a8.523,8.523,0,0,1-2.3.3,8.686,8.686,0,0,1-4.1-1.1,9.291,9.291,0,0,0,.5-1h1.5c.3,0,.5-.1.8-.1a.368.368,0,0,0,.3-.1,4.876,4.876,0,0,0,1.1-.4c.1,0,.2-.1.3-.1.1-.1.3-.1.4-.2s.3-.1.4-.2l.6-.3c.2-.1.4-.3.6-.4.1-.1.3-.2.4-.3s.3-.2.4-.3.3-.2.4-.3c.5-.5,1-1,1.5-1.6.2-.2.3-.4.5-.6s.3-.5.5-.7c.1-.2.3-.4.4-.6.3-.5.6-.9.9-1.4.1-.2.3-.5.4-.7a24.255,24.255,0,0,0,1.9-4.3,1.422,1.422,0,0,0,.2-.6c.1-.3.2-.6.3-1a6.866,6.866,0,0,1,.3-.8c.1-.1.1-.2.1-.4a1.854,1.854,0,0,0,.2-.7,15.989,15.989,0,0,0,.5-2.1c.1-.4.2-.8.3-1.3v-.2l.3-1.5a7.721,7.721,0,0,0,.2-1.5c.1-.4.1-.9.2-1.3v-.2c.1-.4.1-.8.2-1.3a2.2,2.2,0,0,1,.1-.8c.1-.7.1-1.4.2-2.1v-.8a6.6,6.6,0,0,1,.1-1.4v-1.7a21.756,21.756,0,0,0-.1-2.5v-1.1c0-.4-.1-.9-.1-1.3s-.1-.8-.1-1.2-.1-.8-.1-1.2-.1-.8-.1-1.2a61.3,61.3,0,0,0-1.6-7.9c-.1-.2-.1-.5-.2-.7a15.876,15.876,0,0,0-.7-2l-.3-.9c-.2-.6-.5-1.2-.7-1.8-.1-.3-.2-.5-.3-.8a.1.1,0,0,0-.1-.1,2.5,2.5,0,0,0-.4-.7,4.672,4.672,0,0,1-.5-1l-.3-.6a4.054,4.054,0,0,1-.5-.9,1,1,0,0,0-.4-.5c-.2-.2-.3-.5-.5-.7h0a2.652,2.652,0,0,0-.5-.6c-.5-.6-1-1.2-1.5-1.7l-.5-.5C1091.2,289.8,1096.5,302.7,1096.5,318.2Z"/>
        <path id="Tracé_109" data-name="Tracé 109" class="cls-7" d="M1074.7,348.2c0,.1-.1.1-.1.2a2.182,2.182,0,0,1-.5-.4A3.926,3.926,0,0,1,1074.7,348.2Z"/>
        <g id="Groupe_144" data-name="Groupe 144">
          <path id="Tracé_110" data-name="Tracé 110" class="cls-9" d="M1085.5,312.7a5.038,5.038,0,0,1-3.1,4.6c-.3-5.3-3.6-8.9-7.1-11.3-1.8-32.8-16.4-60.5-36.6-72.8-8.3-6.6-17.8-10.4-27.8-10.4-24.5,0-45.6,22.5-55.1,54.9a4.206,4.206,0,0,1-.5-.2c-.4,1.5-.8,3.1-1.2,4.7-.2.7-.3,1.3-.5,2v.2c-.2.7-.3,1.4-.5,2.1-.1.6-.3,1.3-.4,1.9-.1.4-.1.7-.2,1.1a5.02,5.02,0,0,0-.2,1.2c-.1.3-.1.7-.2,1-.1.4-.1.8-.2,1.3,0,.3-.1.6-.1.9-.1.5-.1.9-.2,1.4,0,.3-.1.6-.1,1-.1.5-.1,1-.2,1.5-.1.6-.1,1.2-.2,1.7,0,.5-.1,1-.1,1.6,0,.3-.1.7-.1,1a6.6,6.6,0,0,0-.1,1.4c-.1,1.5-.2,3-.2,4.5v4.9c0,1.6,0,3.2.1,4.7h-.3a4.951,4.951,0,0,1-5-5c0-25.4,7.1-49.4,20-67.4,13.2-18.6,31-28.8,50.1-28.8,19,0,36.8,10.2,50.1,28.8C1078.4,263.4,1085.5,287.3,1085.5,312.7Z"/>
          <path id="Tracé_111" data-name="Tracé 111" class="cls-9" d="M1082.4,317.3a6.456,6.456,0,0,1-1.9.4,4.951,4.951,0,0,1-5-5c0-2.3-.1-4.5-.2-6.7C1078.8,308.4,1082.1,312,1082.4,317.3Z"/>
        </g>
        <path id="Tracé_112" data-name="Tracé 112" class="cls-10" d="M1152,641.4l-7.5,8.2-79.7,87.2H781.3l152.6-95.4Z"/>
        <path id="Tracé_113" data-name="Tracé 113" class="cls-11" d="M1152,641.4v4.9a8.46,8.46,0,0,1-2.2,5.7l-82.5,90.2a8.413,8.413,0,0,1-6.3,2.8H787a5.8,5.8,0,0,1-5.8-5.8v-2.4h283.5l79.8-87.2Z"/>
        <path id="Tracé_114" data-name="Tracé 114" class="cls-6" d="M1129.6,621l-1.2,5.1a25.47,25.47,0,0,1-14,17.3l-74.5,28.2,21.9,42.5s155.1-32,157.3-93"/>
        <path id="Tracé_115" data-name="Tracé 115" class="cls-7" d="M1219.2,621c-2.2,61-157.3,93-157.3,93l-5.7-11.1c7.1-1.5,136.7-29.6,154.9-81.9Z"/>
        <g id="Groupe_145" data-name="Groupe 145">
          <path id="Tracé_116" data-name="Tracé 116" class="cls-12" d="M1050.2,546H794.4a13.187,13.187,0,0,0-13.2,13.2V731.8A13.187,13.187,0,0,0,794.4,745h255.8a13.187,13.187,0,0,0,13.2-13.2V559.2A13.187,13.187,0,0,0,1050.2,546Z"/>
          <ellipse id="Ellipse_12" data-name="Ellipse 12" class="cls-9" cx="8.9" cy="13.5" rx="8.9" ry="13.5" transform="translate(913.4 631.3)"/>
        </g>
        <g id="Groupe_146" data-name="Groupe 146">
          <path id="Tracé_117" data-name="Tracé 117" class="cls-9" d="M1010.5,393.5a3.085,3.085,0,0,1-3-2.5,3.034,3.034,0,0,1,2.5-3.5c26-4.4,45.4-18.4,57.6-41.6a97.161,97.161,0,0,0,10.6-33.8,2.961,2.961,0,1,1,5.9.5,105.824,105.824,0,0,1-11.3,36.1c-9,17.2-27.1,38.8-61.9,44.7C1010.8,393.5,1010.7,393.5,1010.5,393.5Z"/>
        </g>
        <g id="Groupe_147" data-name="Groupe 147" class="cls-13">
          <path id="Tracé_118" data-name="Tracé 118" d="M1076.9,348.7a9.291,9.291,0,0,0-.5,1,10.911,10.911,0,0,1-.6,1.1,86.706,86.706,0,0,1-13.7,19.4c-10.6,11.4-26,21.6-48.2,25.4h-.5a2.913,2.913,0,0,1-2.8-2h.3c34.8-5.9,52.8-27.6,61.9-44.7.2-.4.4-.7.6-1.1a6.119,6.119,0,0,0,1.2.5h.1c.2.1.4.1.6.2.2,0,.3.1.5.1h.2c.2,0,.4.1.6.1C1076.8,348.6,1076.8,348.6,1076.9,348.7Z"/>
        </g>
      </g>
    </g>
  </g>
</svg>
